<svg xmlns="http://www.w3.org/2000/svg" viewBox="0 0 159.08 85.8"><defs><style>.cls-1,.cls-2{fill:#231f20;}.cls-1{stroke:#231f20;stroke-miterlimit:10;stroke-width:2px;}</style></defs><title>slk</title><g id="Layer_2" data-name="Layer 2"><g id="Layer_1-2" data-name="Layer 1"><path class="cls-1" d="M55.16,17.43a33.43,33.43,0,0,1,6.91,0c2.18.45,44.91-24.86,53.84-6.53l3.3-.6S117-14.78,55.16,17.43Z"/><path class="cls-1" d="M34.43,30.65s-1.65,4-1.58,5.71c0,0-36.57,29.06-26.66,41.53,0,0,10.66,13.52,57.9-12.62L65.75,68S19.49,95.38,3.57,80.21C3.57,80.21-12.2,67.56,34.43,30.65Z"/><path class="cls-2" d="M83.2,20.84H94.61L83.38,54.27H103.8l-3.24,9.65H68.73Z"/><path class="cls-2" d="M41.5,49.43c-1.46,5.07,1.18,6.7,6,6.7,3.43,0,7.4-1.2,8.47-4.4,1.28-3.8-4.73-4.53-10.46-6.28S34.24,40.92,36.9,33c3.16-9.41,14-13.09,22.24-13.09,8.71,0,16.08,4.17,12.88,13.88H60.61c1.5-3.92-1.81-5.19-5.31-5.19-2.45,0-5.8.84-6.75,3.68-1.11,3.32,5,3.92,10.79,5.67s11.13,4.65,8.52,12.43C64.18,61.32,53.56,64.82,43.94,64.82c-10.06,0-17.49-4.35-13.84-15.39Z"/><path class="cls-2" d="M119.11,20.85h11.41L125,37.38l20-16.53h14.16L137.2,37.81l9.44,26.13H132.47l-5.69-18.1-6.28,4.83L116,63.93H104.63Z"/></g></g></svg>