<?xml version="1.0" encoding="utf-8"?>
<!-- Generator: Adobe Illustrator 24.1.1, SVG Export Plug-In . SVG Version: 6.00 Build 0)  -->
<svg version="1.1" id="Layer_1" xmlns="http://www.w3.org/2000/svg" xmlns:xlink="http://www.w3.org/1999/xlink" x="0px" y="0px"
	 viewBox="0 0 216 114" style="enable-background:new 0 0 216 114;" xml:space="preserve">
<style type="text/css">
	.st0{fill:#EA0029;stroke:#EA0029;stroke-width:0.2;stroke-miterlimit:10;}
	.st1{fill:#E92231;}
</style>
<g>
	<g>
		<path class="st0" d="M0.7,98.4h0.9v14.8H0.7V98.4z"/>
		<path class="st0" d="M14.4,98.4h1.1l9.4,13.6h0V98.4h0.9v14.8h-1.1l-9.4-13.7h0v13.7h-0.9V98.4z"/>
		<path class="st0" d="M38.7,98.4h4.9c5.3,0,6.8,3.6,6.8,7.4c0,4.2-2.1,7.4-6.9,7.4h-4.8V98.4z M39.6,112.4h4c2.8,0,5.9-1.5,5.9-6.6
			c0-6.1-3.9-6.6-6.1-6.6h-3.8V112.4z"/>
		<path class="st0" d="M63.6,98.4v8.9c0,1.8,0.4,5.5,4.6,5.5c3.6,0,4.9-2.1,4.9-5.5v-8.9H74v8.9c0,3.5-1.3,6.3-5.8,6.3
			c-5.3,0-5.6-4.3-5.6-6.3v-8.9H63.6z"/>
		<path class="st0" d="M96.4,102.6c-0.1-2.5-2-3.8-4.7-3.8c-1.7,0-4.1,0.7-4.1,3.2c0,2.4,2.5,2.8,5,3.3c2.5,0.5,5.1,1.2,5.1,4.1
			c0,3.1-2.9,4.2-5.2,4.2c-3.5,0-6.3-1.4-6.2-5.2h0.9c-0.2,3.2,2.4,4.5,5.3,4.5c1.8,0,4.3-0.8,4.3-3.4c0-2.5-2.5-2.9-5.1-3.5
			c-2.5-0.5-5-1.1-5-3.9c0-2.8,2.6-3.9,5-3.9c3.1,0,5.5,1.3,5.7,4.6H96.4z"/>
		<path class="st0" d="M108.4,99.2v-0.8h11.3v0.8h-5.2v14h-0.9v-14H108.4z"/>
		<path class="st0" d="M130.9,98.4h6.2c2.6,0,4.7,1,4.7,3.8c0,2-1.2,3.5-3.2,3.8v0c2.2,0.2,2.7,1.6,2.9,3.2c0.1,1.5-0.1,3.2,0.5,4
			h-1c-0.6-1-0.2-2.7-0.4-4.1c-0.2-1.4-0.9-2.6-3.5-2.6h-5.3v6.7h-0.9V98.4z M137.1,105.7c2.2,0,3.8-1,3.8-3.4
			c0-2.2-1.8-3.1-3.8-3.1h-5.3v6.5H137.1z"/>
		<path class="st0" d="M154.2,98.4h0.9v14.8h-0.9V98.4z"/>
		<path class="st0" d="M177.9,112.4v0.8h-10.1V98.4h10v0.8h-9v5.9h8.5v0.8h-8.5v6.5H177.9z"/>
		<path class="st0" d="M199.3,102.6c-0.1-2.5-2-3.8-4.7-3.8c-1.7,0-4.1,0.7-4.1,3.2c0,2.4,2.5,2.8,5,3.3c2.5,0.5,5.1,1.2,5.1,4.1
			c0,3.1-2.9,4.2-5.2,4.2c-3.5,0-6.3-1.4-6.2-5.2h0.9c-0.2,3.2,2.4,4.5,5.3,4.5c1.8,0,4.3-0.8,4.3-3.4c0-2.5-2.5-2.9-5.1-3.5
			c-2.5-0.5-5-1.1-5-3.9c0-2.8,2.6-3.9,5-3.9c3.1,0,5.5,1.3,5.7,4.6H199.3z"/>
	</g>
	<g>
		<g>
			<g>
				<path class="st1" d="M60.2,27.5C59.6,12.6,48.3,5.1,32.2,5.1c-9.9,0-23.9,4.2-23.9,18.6c0,14.1,14.9,16.4,29.6,19.5
					c14.9,3.1,29.8,6.9,29.8,24.2c0,18.1-17.3,24.6-30.6,24.6c-20.4,0-37-8.5-36.7-31h5.4C4.7,80.2,19.9,87.4,37.1,87.4
					c10.5,0,25.2-4.8,25.2-20c0-14.8-14.9-17.4-29.8-20.5C17.9,43.9,3,40.4,3,23.7C3,7,18.5,0.5,32.2,0.5c18.2,0,32.4,7.8,33.3,27.1
					H60.2z"/>
				<polygon class="st1" points="64.7,7.2 64.7,2.5 131.4,2.5 131.4,7.2 100.7,7.2 100.7,90 95.3,90 95.3,7.2 				"/>
				<polygon class="st1" points="138.7,2.5 199.8,2.5 199.8,7.2 140.7,85.3 200.9,85.3 200.9,90 135.1,90 135.1,85.3 193.9,7.2 
					138.7,7.2 				"/>
			</g>
		</g>
		<g>
			<path class="st1" d="M211.1,2.5c0.7,0,1.5,0.2,2.2,0.6c0.7,0.4,1.3,0.9,1.7,1.7c0.4,0.7,0.6,1.5,0.6,2.2c0,0.8-0.2,1.5-0.6,2.2
				c-0.4,0.7-0.9,1.3-1.7,1.7c-0.7,0.4-1.4,0.6-2.2,0.6s-1.5-0.2-2.2-0.6c-0.7-0.4-1.3-0.9-1.7-1.7c-0.4-0.7-0.6-1.5-0.6-2.2
				c0-0.8,0.2-1.5,0.6-2.2c0.4-0.7,1-1.3,1.7-1.7C209.6,2.7,210.4,2.5,211.1,2.5z M211.1,3.2c-0.6,0-1.2,0.2-1.8,0.5
				c-0.6,0.3-1.1,0.8-1.4,1.4c-0.3,0.6-0.5,1.2-0.5,1.9c0,0.6,0.2,1.3,0.5,1.9c0.3,0.6,0.8,1.1,1.4,1.4c0.6,0.3,1.2,0.5,1.9,0.5
				c0.6,0,1.3-0.2,1.9-0.5c0.6-0.3,1.1-0.8,1.4-1.4c0.3-0.6,0.5-1.2,0.5-1.9c0-0.6-0.2-1.3-0.5-1.9C214,4.5,213.5,4,213,3.7
				C212.4,3.4,211.7,3.2,211.1,3.2z M209.2,9.4V4.6h1.7c0.6,0,1,0,1.2,0.1c0.3,0.1,0.5,0.2,0.6,0.5c0.1,0.2,0.2,0.5,0.2,0.7
				c0,0.4-0.1,0.7-0.4,0.9s-0.6,0.4-1,0.4c0.2,0.1,0.3,0.2,0.4,0.3c0.2,0.2,0.4,0.5,0.7,1l0.6,0.9h-0.9l-0.4-0.8
				c-0.3-0.6-0.6-1-0.8-1.1c-0.1-0.1-0.3-0.2-0.6-0.2h-0.5v2.1H209.2z M209.9,6.7h0.9c0.4,0,0.8-0.1,0.9-0.2C212,6.4,212,6.2,212,6
				c0-0.1,0-0.3-0.1-0.4c-0.1-0.1-0.2-0.2-0.3-0.3c-0.1-0.1-0.4-0.1-0.8-0.1h-0.9V6.7z"/>
		</g>
	</g>
</g>
</svg>
