<svg xmlns="http://www.w3.org/2000/svg" viewBox="0 0 111.46 109.28"><defs><style>.cls-1{fill:none;stroke:#231f20;stroke-linecap:round;stroke-linejoin:round;stroke-width:2px;}</style></defs><title>faucet</title><g id="Layer_2" data-name="Layer 2"><g id="Layer_1-2" data-name="Layer 1"><line class="cls-1" x1="45.07" y1="101.63" x2="56.77" y2="101.63"/><line class="cls-1" x1="62.79" y1="101.63" x2="74.61" y2="101.63"/><line class="cls-1" x1="42.18" y1="108.28" x2="95.23" y2="108.28"/><line class="cls-1" x1="56.18" y1="101.63" x2="56.18" y2="101.47"/><line class="cls-1" x1="45.7" y1="101.63" x2="45.7" y2="101.47"/><line class="cls-1" x1="62.52" y1="95.52" x2="62.83" y2="100.61"/><line class="cls-1" x1="74.57" y1="101.63" x2="62.83" y2="101.63"/><line class="cls-1" x1="73" y1="91.18" x2="64.44" y2="91.18"/><line class="cls-1" x1="74.92" y1="95.52" x2="74.57" y2="100.61"/><polyline class="cls-1" points="73.08 92.32 73.2 92.04 73.28 91.73 73.2 91.42 73 91.18"/><polyline class="cls-1" points="73.08 92.32 72.93 92.59 72.93 92.9 73.08 93.18 73.32 93.33"/><polyline class="cls-1" points="74.92 95.52 74.8 94.98 74.61 94.43 74.26 94 73.83 93.61 73.32 93.33"/><polyline class="cls-1" points="74.57 101.63 74.77 101.43 74.84 101.12 74.77 100.85 74.57 100.61"/><polyline class="cls-1" points="62.83 100.61 62.64 100.84 62.6 101.12 62.64 101.43 62.83 101.63"/><polyline class="cls-1" points="64.08 93.33 63.58 93.61 63.15 94 62.83 94.43 62.6 94.98 62.52 95.52"/><polyline class="cls-1" points="64.08 93.33 64.36 93.18 64.47 92.9 64.47 92.59 64.36 92.32"/><polyline class="cls-1" points="64.44 91.18 64.24 91.42 64.16 91.73 64.2 92.04 64.36 92.32"/><line class="cls-1" x1="62.83" y1="100.61" x2="74.57" y2="100.61"/><line class="cls-1" x1="64.36" y1="92.32" x2="73.08" y2="92.32"/><line class="cls-1" x1="64.08" y1="93.33" x2="73.32" y2="93.33"/><line class="cls-1" x1="4.66" y1="30.86" x2="2.88" y2="37.98"/><line class="cls-1" x1="10.23" y1="32.89" x2="8.48" y2="39.78"/><line class="cls-1" x1="2.68" y1="38.45" x2="8.35" y2="40.4"/><polyline class="cls-1" points="2.52 38.37 2.75 38.21 2.88 37.98"/><polyline class="cls-1" points="8.48 39.7 8.45 40.09 8.51 40.44"/><line class="cls-1" x1="66.42" y1="91.18" x2="66.42" y2="43.02"/><line class="cls-1" x1="72.22" y1="91.18" x2="72.22" y2="41.46"/><path class="cls-1" d="M66.42,43l0-2.27-.16-2.23C64.76,23.84,55.78,12,43.82,8.79L42,8.4l-1.85-.27C28,6.92,16.41,15.16,11.49,28.66l-.68,2.07-.58,2.15"/><path class="cls-1" d="M72.22,41.46,72.09,39l-.26-2.5C69.78,19.51,59.07,5.69,45.24,2l-2-.47-2-.35C26.31-.58,11.95,9.55,6.09,26.16l-.78,2.35-.65,2.35"/><line class="cls-1" x1="65.22" y1="91.18" x2="72.22" y2="91.18"/><line class="cls-1" x1="1.65" y1="40.13" x2="1.36" y2="42.4"/><line class="cls-1" x1="2.43" y1="38.33" x2="2.1" y2="39.62"/><line class="cls-1" x1="1" y1="43.02" x2="7.77" y2="45.37"/><line class="cls-1" x1="7.77" y1="44.71" x2="1.29" y2="42.48"/><line class="cls-1" x1="7.74" y1="44.59" x2="1.36" y2="42.4"/><line class="cls-1" x1="1.65" y1="40.13" x2="8.51" y2="42.51"/><line class="cls-1" x1="2.1" y1="39.62" x2="8.32" y2="41.77"/><polyline class="cls-1" points="2.42 38.33 8.64 40.48 8.32 41.77"/><line class="cls-1" x1="8.51" y1="42.51" x2="7.74" y2="44.59"/><polyline class="cls-1" points="2.1 39.62 1.87 39.7 1.71 39.89 1.65 40.13"/><polyline class="cls-1" points="8.51 42.52 8.55 42.24 8.48 41.97 8.32 41.77"/><polyline class="cls-1" points="1.29 42.48 1.1 42.59 1 42.79 1 43.02"/><polyline class="cls-1" points="7.77 45.37 7.87 45.17 7.87 44.9 7.77 44.71"/><polyline class="cls-1" points="1.29 42.48 1.36 42.44 1.36 42.4"/><polyline class="cls-1" points="7.74 44.59 7.74 44.67 7.77 44.7"/><line class="cls-1" x1="42.25" y1="103.97" x2="42.18" y2="108.28"/><line class="cls-1" x1="54.26" y1="88.09" x2="54.26" y2="90.99"/><line class="cls-1" x1="44.45" y1="96.03" x2="44.45" y2="101.47"/><polyline class="cls-1" points="57.4 96.03 57.4 101.47 44.45 101.47"/><line class="cls-1" x1="44.45" y1="96.03" x2="57.39" y2="96.03"/><line class="cls-1" x1="45.15" y1="94.62" x2="56.69" y2="94.62"/><polyline class="cls-1" points="56.73 94.7 56.85 95.09 57 95.45 57.28 95.76"/><polyline class="cls-1" points="56.73 94.7 56.65 94.51 56.46 94.43"/><polyline class="cls-1" points="57.4 96.03 57.36 95.88 57.28 95.76"/><line class="cls-1" x1="56.18" y1="101.63" x2="56.18" y2="101.47"/><line class="cls-1" x1="45.7" y1="101.63" x2="45.7" y2="101.47"/><line class="cls-1" x1="45.7" y1="88.68" x2="45.7" y2="81.36"/><polyline class="cls-1" points="55.48 88.01 55.48 82.07 45.7 81.36"/><line class="cls-1" x1="55.48" y1="88.01" x2="54.26" y2="88.09"/><line class="cls-1" x1="47.61" y1="88.56" x2="45.7" y2="88.68"/><polyline class="cls-1" points="55.48 88.01 55.79 87.03 55.95 86.02 56.03 85.04 55.95 84.02 55.79 83.01 55.48 82.07"/><polyline class="cls-1" points="54.27 90.99 54.38 91.81 54.7 92.63 55.16 93.33 55.75 93.96 56.46 94.43"/><polyline class="cls-1" points="44.56 95.76 44.84 95.45 45.03 95.09 45.15 94.7"/><polyline class="cls-1" points="45.38 94.43 45.23 94.51 45.15 94.7"/><polyline class="cls-1" points="44.56 95.76 44.48 95.88 44.45 96.03"/><line class="cls-1" x1="47.61" y1="88.56" x2="47.61" y2="90.99"/><polyline class="cls-1" points="45.38 94.43 46.09 93.96 46.71 93.33 47.18 92.63 47.46 91.81 47.61 90.99"/><polyline class="cls-1" points="47.61 88.56 48.44 88.09 49.22 87.5 49.92 86.8 50.47 86.02 50.94 85.16 51.37 85.98 51.96 86.68 52.62 87.27 53.41 87.74 54.27 88.09"/><line class="cls-1" x1="29.23" y1="82.38" x2="45.7" y2="81.52"/><polyline class="cls-1" points="29.23 87.66 45.7 88.52 45.7 81.52"/><path class="cls-1" d="M29.23,82.38l-.55.16a2.66,2.66,0,0,0,0,5l.55.16"/><line class="cls-1" x1="83.18" y1="88.09" x2="83.18" y2="90.99"/><line class="cls-1" x1="92.96" y1="96.03" x2="92.96" y2="101.47"/><polyline class="cls-1" points="80.01 96.03 80.01 101.47 92.96 101.47"/><line class="cls-1" x1="92.96" y1="96.03" x2="80.01" y2="96.03"/><line class="cls-1" x1="92.25" y1="94.62" x2="80.71" y2="94.62"/><polyline class="cls-1" points="80.12 95.76 80.4 95.45 80.59 95.09 80.71 94.7"/><polyline class="cls-1" points="80.95 94.43 80.79 94.51 80.71 94.7"/><polyline class="cls-1" points="80.12 95.76 80.05 95.88 80.01 96.03"/><line class="cls-1" x1="91.74" y1="88.68" x2="91.74" y2="81.36"/><polyline class="cls-1" points="81.92 88.01 81.92 82.07 91.74 81.36"/><line class="cls-1" x1="81.92" y1="88.01" x2="83.18" y2="88.09"/><line class="cls-1" x1="89.83" y1="88.56" x2="91.74" y2="88.68"/><polyline class="cls-1" points="81.92 82.07 81.65 83 81.45 84.02 81.42 85.04 81.45 86.02 81.65 87.03 81.92 88.01"/><polyline class="cls-1" points="80.95 94.43 81.65 93.96 82.28 93.33 82.75 92.63 83.02 91.81 83.17 90.99"/><polyline class="cls-1" points="92.29 94.7 92.41 95.09 92.6 95.45 92.84 95.76"/><polyline class="cls-1" points="92.29 94.7 92.21 94.51 92.02 94.43"/><polyline class="cls-1" points="92.96 96.03 92.96 95.88 92.84 95.76"/><polyline class="cls-1" points="89.83 88.56 89.83 90.99 89.94 91.81 90.26 92.63 90.73 93.33 91.31 93.96 92.02 94.43"/><polyline class="cls-1" points="86.5 85.16 86.93 86.02 87.52 86.8 88.18 87.5 88.97 88.09 89.83 88.56"/><polyline class="cls-1" points="83.18 88.09 84 87.74 84.78 87.27 85.48 86.68 86.07 85.98 86.5 85.16"/><line class="cls-1" x1="108.21" y1="82.38" x2="91.74" y2="81.52"/><polyline class="cls-1" points="108.21 87.66 91.74 88.52 91.74 81.52"/><path class="cls-1" d="M108.21,87.66l.55-.16a2.67,2.67,0,0,0,0-5l-.55-.16"/><line class="cls-1" x1="95.19" y1="103.97" x2="95.23" y2="108.28"/><polyline class="cls-1" points="93.5 102.25 85.25 101.9 76.99 101.7 68.7 101.63 60.45 101.7 52.19 101.9 43.94 102.25 43.47 102.33 43.08 102.49 42.76 102.76 42.49 103.11 42.33 103.54 42.26 103.97"/><polyline class="cls-1" points="95.19 103.97 95.11 103.55 94.95 103.11 94.68 102.76 94.33 102.49 93.93 102.33 93.5 102.25"/><line class="cls-1" x1="45.07" y1="101.63" x2="44.91" y2="102.21"/><line class="cls-1" x1="56.77" y1="101.63" x2="56.81" y2="101.78"/><line class="cls-1" x1="92.33" y1="101.63" x2="80.63" y2="101.63"/><line class="cls-1" x1="81.26" y1="101.63" x2="81.26" y2="101.47"/><line class="cls-1" x1="91.74" y1="101.63" x2="91.74" y2="101.47"/><line class="cls-1" x1="81.26" y1="101.63" x2="81.26" y2="101.47"/><line class="cls-1" x1="91.74" y1="101.63" x2="91.74" y2="101.47"/><line class="cls-1" x1="92.33" y1="101.63" x2="92.53" y2="102.21"/><line class="cls-1" x1="80.63" y1="101.63" x2="80.59" y2="101.78"/></g></g></svg>