<?xml version="1.0" encoding="utf-8"?>
<!-- Generator: Adobe Illustrator 21.1.0, SVG Export Plug-In . SVG Version: 6.00 Build 0)  -->
<svg version="1.1" id="Layer_1" xmlns="http://www.w3.org/2000/svg" xmlns:xlink="http://www.w3.org/1999/xlink" x="0px" y="0px"
	 viewBox="0 0 192.9 192.9" style="enable-background:new 0 0 192.9 192.9;" xml:space="preserve">
<style type="text/css">
	.st0{fill:none;stroke:#EE2A40;stroke-width:1.9;stroke-miterlimit:10;}
	.st1{fill:#A3333B;}
	.st2{fill:none;stroke:#EE2A40;stroke-width:0.71;stroke-miterlimit:10;}
	.st3{fill:none;stroke:#EF4250;stroke-miterlimit:10;}
	.st4{fill:#FFFFFF;}
	.st5{fill:none;stroke:#A3333B;stroke-width:5.46;stroke-miterlimit:10;}
</style>
<title>wholesale</title>
<g id="Layer_2">
	<g id="Layer_1-2">
		<polygon class="st0" points="44.3,60.3 79.8,41 148.6,56 146.5,128.9 81.9,149.6 47.2,130.6 		"/>
		<polyline class="st0" points="79.8,41 148.6,56 146.5,128.9 81.9,149.6 		"/>
		<g>
			<polygon class="st1" points="146.6,128.5 82.2,149.9 81.6,127.9 146.1,119.8 			"/>
			<polygon class="st1" points="148.6,72.2 80.4,62.5 79.3,41.5 147.9,56.8 			"/>
			<polygon class="st1" points="147.7,88.5 80.7,84.4 80.4,62.8 148.1,72 			"/>
			<polygon class="st1" points="147.2,104.6 81.4,106.3 81,84 147.7,87.9 			"/>
			<polygon class="st1" points="146.5,119.6 81.5,127.7 81.2,106.5 147.2,104.9 			"/>
			<polygon class="st1" points="80.8,63 45,75.4 44.8,60.4 80.1,41.5 			"/>
			<polygon class="st1" points="80.5,84.1 46,91.3 45.3,75.4 80.5,62.3 			"/>
			<polygon class="st1" points="81.6,106.1 46.5,107.4 45.6,91.4 81,83.9 			"/>
			<polygon class="st1" points="81.9,150.1 46.6,131.2 47.2,121.1 81.4,127.8 			"/>
			<polygon class="st1" points="81.5,127.7 47.2,120.6 47.2,107.2 81.7,106.1 			"/>
		</g>
		<line class="st2" x1="79.7" y1="40" x2="82" y2="150.3"/>
		<line class="st3" x1="80.8" y1="62.5" x2="148.1" y2="71.8"/>
		<line class="st3" x1="44.8" y1="75.6" x2="81.2" y2="62.5"/>
		<line class="st3" x1="81" y1="84.6" x2="148.1" y2="87.9"/>
		<line class="st3" x1="45.4" y1="91.4" x2="81.1" y2="84.7"/>
		<line class="st3" x1="81.2" y1="106.3" x2="148.1" y2="104.6"/>
		<line class="st3" x1="47" y1="107.4" x2="81.5" y2="106.3"/>
		<polyline class="st3" points="47.7,120.9 82.1,127.7 147,119.6 		"/>
		<polygon class="st4" points="142.9,126.3 124.8,130.8 125.1,126.8 142.9,123.9 		"/>
		<polygon class="st4" points="120.1,132.5 88.6,141.1 88.4,133.4 119.8,127.7 		"/>
		<circle class="st5" cx="96.5" cy="96.5" r="93.8"/>
	</g>
</g>
</svg>
