<?xml version="1.0" encoding="utf-8"?>
<!-- Generator: Adobe Illustrator 21.1.0, SVG Export Plug-In . SVG Version: 6.00 Build 0)  -->
<svg version="1.1" id="Layer_1" xmlns="http://www.w3.org/2000/svg" xmlns:xlink="http://www.w3.org/1999/xlink" x="0px" y="0px"
	 viewBox="0 0 192.9 192.9" style="enable-background:new 0 0 192.9 192.9;" xml:space="preserve">
<style type="text/css">
	.st0{fill:#A3333B;}
	.st1{fill:#F1F2F2;}
	.st2{fill:none;stroke:#A3333B;stroke-width:5.46;stroke-miterlimit:10;}
</style>
<title>retail</title>
<g id="Layer_2">
	<g id="Layer_1-2">
		<g>
			<rect x="39.8" y="76.8" class="st0" width="113.3" height="60.1"/>
			<polygon class="st0" points="52.1,44.2 24.1,73.9 168.9,73.9 139.4,44.2 			"/>
			<path class="st0" d="M163.1,142.6c0,1.4-1.1,2.6-2.6,2.6c0,0,0,0,0,0H32.4c-1.4,0-2.6-1.1-2.6-2.6c0,0,0,0,0,0l0,0
				c0-1.4,1.1-2.6,2.5-2.6c0,0,0,0,0,0h128.2C162,140,163.1,141.1,163.1,142.6C163.2,142.6,163.2,142.6,163.1,142.6L163.1,142.6z"/>
		</g>
		<rect x="47.5" y="84.2" class="st1" width="34.9" height="45.8"/>
		<rect x="96.9" y="84.2" class="st1" width="48.5" height="29.3"/>
		<circle class="st2" cx="96.5" cy="96.5" r="93.8"/>
	</g>
</g>
</svg>
