<svg xmlns="http://www.w3.org/2000/svg" viewBox="0 0 192.95 192.95"><defs><style>.cls-1{fill:#e23030;}.cls-2,.cls-4,.cls-5,.cls-7{fill:none;stroke-miterlimit:10;}.cls-2,.cls-4{stroke:#ee2a40;}.cls-2{stroke-width:1.9px;}.cls-3{fill:#e2231a;}.cls-4{stroke-width:0.71px;}.cls-5{stroke:#ef4250;}.cls-6{fill:#fff;}.cls-7{stroke:#eb0029;stroke-width:5.46px;}</style></defs><title>wholesale</title><g id="Layer_2" data-name="Layer 2"><g id="Layer_1-2" data-name="Layer 1"><polygon class="cls-1" points="146.55 128.51 82.19 149.86 81.63 127.87 146.08 119.78 146.55 128.51"/><polygon class="cls-2" points="44.33 60.33 79.81 41.05 148.62 56.05 146.47 128.91 81.95 149.62 47.19 130.57 44.33 60.33"/><polyline class="cls-2" points="79.81 41.05 148.62 56.05 146.47 128.91 81.95 149.62"/><polygon class="cls-1" points="148.62 72.24 80.45 62.48 79.25 41.53 147.9 56.76 148.62 72.24"/><polygon class="cls-1" points="147.66 88.51 80.68 84.39 80.44 62.8 148.14 72.01 147.66 88.51"/><polygon class="cls-1" points="147.19 104.62 81.4 106.29 81.04 84.03 147.66 87.95 147.19 104.62"/><polygon class="cls-1" points="146.47 119.62 81.48 127.72 81.24 106.52 147.19 104.86 146.47 119.62"/><polygon class="cls-3" points="80.76 63 45.05 75.45 44.81 60.36 80.05 41.53 80.76 63"/><polygon class="cls-3" points="80.52 84.05 45.99 91.29 45.29 75.42 80.52 62.35 80.52 84.05"/><polygon class="cls-3" points="81.63 106.05 46.47 107.36 45.64 91.41 81.04 83.91 81.63 106.05"/><polygon class="cls-3" points="81.95 150.09 46.56 131.21 47.19 121.05 81.4 127.79 81.95 150.09"/><polygon class="cls-3" points="81.48 127.72 47.19 120.57 47.19 107.24 81.71 106.05 81.48 127.72"/><line class="cls-4" x1="79.73" y1="40.02" x2="82.03" y2="150.33"/><line class="cls-5" x1="80.76" y1="62.48" x2="148.14" y2="71.76"/><line class="cls-5" x1="44.81" y1="75.57" x2="81.24" y2="62.48"/><line class="cls-5" x1="81" y1="84.62" x2="148.14" y2="87.95"/><line class="cls-5" x1="45.44" y1="91.37" x2="81.12" y2="84.68"/><line class="cls-5" x1="81.24" y1="106.29" x2="148.14" y2="104.62"/><line class="cls-5" x1="47.03" y1="107.4" x2="81.48" y2="106.35"/><polyline class="cls-5" points="47.67 120.89 82.11 127.72 147.03 119.62"/><polygon class="cls-6" points="142.9 126.29 124.81 130.81 125.05 126.76 142.9 123.91 142.9 126.29"/><polygon class="cls-6" points="120.05 132.48 88.62 141.05 88.38 133.43 119.81 127.72 120.05 132.48"/><circle class="cls-7" cx="96.48" cy="96.48" r="93.75"/></g></g></svg>