<svg xmlns="http://www.w3.org/2000/svg" viewBox="0 0 86.74 88.46"><defs><style>.cls-1{fill:#231f20;stroke:#231f20;stroke-miterlimit:10;stroke-width:0.4px;}</style></defs><title>rough</title><g id="Layer_2" data-name="Layer 2"><g id="Layer_1-2" data-name="Layer 1"><path class="cls-1" d="M59,2.71l.66,0-.4-.59-.75-.15c-.89-.07-2.65-.1-5.05-.11-3,0-7,.06-11.35.16-4.66.12-8.87.28-11.93.44-1.53.08-2.77.16-3.64.24l-1,.12-.34.08L25,3l-.35.6v0l.4.6.75.14c.89.07,2.65.11,5.05.11,3,0,7-.06,11.35-.16,4.66-.12,8.88-.28,11.93-.44,1.53-.08,2.76-.16,3.63-.24l1-.12.33-.08.21-.08.35-.59v0l-.66,0h0l-.31-.55-.31.55H59l-.31-.55.18.31-.11-.35-.07,0,.18.31-.11-.35a12.44,12.44,0,0,1-1.61.18c-2.76.22-8.43.47-15,.63-4.36.11-8.32.16-11.32.16-1.7,0-3.07,0-4-.05L25.77,3l-.21,0-.06.3L25.62,3l-.06,0-.06.3L25.62,3l-.27.56.62,0L25.62,3l-.27.56.62,0-.66,0h0l.32.54L26,3.56h-.62l.32.54-.18-.31.11.35.08,0-.18-.31.11.35a13.85,13.85,0,0,1,1.61-.18c2.76-.22,8.44-.47,15-.63,4.36-.11,8.32-.16,11.32-.16,1.7,0,3.07,0,4,.05l1.06.06.21,0L58.85,3l-.13.27.06,0L58.85,3l-.13.27L59,2.71l-.62,0,.35.54L59,2.71l-.62,0,.66,0h0"/><path class="cls-1" d="M69.87,44.75l-.65,0c0,.72-.06,1.41-.06,2.11a25.72,25.72,0,0,0,1.91,10.33c1.21,2.67,3,4.54,5.27,4.69h.25c2.43,0,4.47-2,6-4.87a28.42,28.42,0,0,0,2.86-11.29c0-.72.06-1.41.06-2.11a25.62,25.62,0,0,0-1.92-10.33c-1.21-2.67-3-4.54-5.26-4.69h-.26c-2.42,0-4.47,2-6,4.86a28.22,28.22,0,0,0-2.86,11.29l.65,0,.66,0A27,27,0,0,1,73.24,34c1.43-2.72,3.23-4.19,4.85-4.17h.18c1.52.08,3,1.44,4.15,3.93a24.26,24.26,0,0,1,1.8,9.78c0,.66,0,1.34-.06,2a27,27,0,0,1-2.72,10.75c-1.43,2.72-3.23,4.19-4.85,4.17h-.18c-1.51-.08-3-1.44-4.15-3.93a24.46,24.46,0,0,1-1.8-9.78c0-.66,0-1.34.06-2l-.66,0"/><path class="cls-1" d="M70.07,44.26l-.32,0c0,.76-.07,1.5-.07,2.23a26.45,26.45,0,0,0,1.6,9.62c1,2.47,2.46,4.12,4.29,4.25h.18c2,0,3.68-1.8,5-4.53a29.66,29.66,0,0,0,2.52-10.75c0-.76.06-1.5.06-2.23a26.18,26.18,0,0,0-1.6-9.62c-1-2.47-2.45-4.12-4.28-4.25h-.19c-2,0-3.68,1.8-5,4.54a29.54,29.54,0,0,0-2.51,10.75l.32,0,.31,0a29,29,0,0,1,2.45-10.51c1.28-2.67,2.92-4.2,4.44-4.18h.15c1.41.07,2.76,1.46,3.74,3.85a25.77,25.77,0,0,1,1.55,9.39c0,.72,0,1.45-.06,2.19A29,29,0,0,1,80.2,55.53c-1.28,2.67-2.92,4.2-4.45,4.18h-.15c-1.42-.07-2.76-1.46-3.74-3.85a25.64,25.64,0,0,1-1.55-9.39c0-.72,0-1.45.06-2.19l-.31,0"/><path class="cls-1" d="M70,44.75l-.32,0q-.07,1.14-.07,2.22A25.67,25.67,0,0,0,71,55.6c.83,2.21,2,3.7,3.58,3.81h.15c1.7,0,3.13-1.67,4.26-4.18a29.32,29.32,0,0,0,2.15-9.82c0-.75.07-1.5.07-2.22a25.69,25.69,0,0,0-1.31-8.65c-.83-2.21-2-3.7-3.58-3.81h-.15c-1.7,0-3.13,1.68-4.26,4.18a29.31,29.31,0,0,0-2.15,9.82l.32,0,.31,0a28.57,28.57,0,0,1,2.1-9.6c1.07-2.44,2.46-3.83,3.68-3.8h.11c1.12,0,2.24,1.27,3,3.41a24.92,24.92,0,0,1,1.27,8.42c0,.71,0,1.44-.06,2.18a28.6,28.6,0,0,1-2.1,9.6c-1.07,2.44-2.46,3.83-3.68,3.8h-.11c-1.12,0-2.24-1.27-3-3.41A24.92,24.92,0,0,1,70.29,47c0-.71,0-1.44.06-2.18l-.31,0"/><path class="cls-1" d="M70,44.8l-.32,0c-.05.88-.08,1.75-.08,2.59a28.24,28.24,0,0,0,1,7.9c.62,2,1.47,3.36,2.75,3.47h.1c1.42-.05,2.51-1.64,3.41-4a34.09,34.09,0,0,0,1.77-9.4c.05-.88.08-1.75.08-2.59a28.21,28.21,0,0,0-1-7.89c-.62-2-1.47-3.36-2.75-3.47h-.09c-1.43.05-2.51,1.64-3.41,4a33.85,33.85,0,0,0-1.78,9.4l.32,0,.32,0a33.39,33.39,0,0,1,1.73-9.21c.86-2.35,2-3.67,2.83-3.62H75c.74,0,1.6,1.08,2.18,3a27.75,27.75,0,0,1,.94,7.7c0,.83,0,1.68-.08,2.56a33.16,33.16,0,0,1-1.74,9.21c-.85,2.35-2,3.67-2.82,3.62h-.06c-.74,0-1.6-1.08-2.18-3a27.77,27.77,0,0,1-.94-7.71c0-.83,0-1.68.08-2.55l-.32,0"/><path class="cls-1" d="M70.46,44.36l-.31,0c-.07,1.13-.11,2.23-.11,3.28a32.58,32.58,0,0,0,.64,7c.43,1.75.93,2.95,1.95,3.08h.06c1.19-.1,1.89-1.63,2.6-3.92a43.09,43.09,0,0,0,1.41-9c.07-1.13.1-2.23.1-3.28a33.05,33.05,0,0,0-.63-7c-.43-1.75-.93-2.95-1.95-3.08h-.06c-1.19.09-1.89,1.63-2.6,3.92a42.58,42.58,0,0,0-1.41,9l.31,0,.32,0a42.52,42.52,0,0,1,1.38-8.91c.62-2.28,1.55-3.57,2-3.47h0c.36,0,1,.87,1.37,2.59a32.2,32.2,0,0,1,.62,6.86c0,1,0,2.12-.1,3.24a42.65,42.65,0,0,1-1.38,8.91c-.63,2.28-1.55,3.56-2,3.47h0c-.35.05-1-.86-1.37-2.59a32.65,32.65,0,0,1-.62-6.86c0-1,0-2.12.1-3.24l-.32,0"/><path class="cls-1" d="M70.46,44.26c-.38,6.34.47,11.54,1.89,11.63s2.9-5,3.28-11.32S75.17,33,73.74,32.94s-2.9,5-3.28,11.32"/><path class="cls-1" d="M35,50.27h-.66A18.34,18.34,0,0,1,30.2,62.15a13.14,13.14,0,0,1-10,4.86,13.14,13.14,0,0,1-10-4.86,19,19,0,0,1,0-23.76,13.14,13.14,0,0,1,10-4.86,13.14,13.14,0,0,1,10,4.86,18.34,18.34,0,0,1,4.18,11.88h1.31c0-9.9-6.85-18-15.49-18.06S4.74,40.38,4.72,50.27s6.85,18,15.48,18.06,15.47-8.16,15.49-18.06H35"/><path class="cls-1" d="M35,50.44h-.31c0,8.51-6.14,15.34-13.66,15.35S7.42,58.95,7.42,50.44,13.56,35.1,21.07,35.09s13.65,6.85,13.66,15.35h.63c0-8.8-6.37-16-14.29-16S6.8,41.64,6.78,50.44s6.37,16,14.29,16,14.27-7.19,14.29-16H35"/><path class="cls-1" d="M35,50.11h-.31c0,8.09-5.66,14.57-12.57,14.59S9.6,58.2,9.6,50.11s5.66-14.58,12.56-14.6S34.72,42,34.73,50.11h.63c0-8.38-5.87-15.22-13.19-15.22S9,41.74,9,50.11s5.87,15.21,13.19,15.22,13.18-6.85,13.19-15.22H35"/><path class="cls-1" d="M35,49.53h-.32c0,7.73-5.18,13.92-11.47,13.93S11.71,57.26,11.7,49.53,16.89,35.61,23.17,35.6s11.47,6.19,11.47,13.93h.63c0-8-5.37-14.55-12.1-14.56s-12.09,6.56-12.1,14.56,5.37,14.55,12.1,14.56,12.09-6.56,12.1-14.56H35"/><path class="cls-1" d="M35,49.06h-.31a16.07,16.07,0,0,1-3.12,9.77,9.43,9.43,0,0,1-7.42,4,9.43,9.43,0,0,1-7.42-4,16.1,16.1,0,0,1-3.11-9.77,16.1,16.1,0,0,1,3.11-9.77,9.44,9.44,0,0,1,7.42-4,9.44,9.44,0,0,1,7.42,4,16.06,16.06,0,0,1,3.12,9.77h.63c0-7.9-4.93-14.38-11.16-14.4S13,41.16,13,49.06,18,63.44,24.19,63.46,35.34,57,35.35,49.06H35"/><path class="cls-1" d="M35,48.75c0,7.4-4.29,13.41-9.58,13.41s-9.58-6-9.58-13.41,4.29-13.41,9.58-13.41S35,41.34,35,48.75"/><path class="cls-1" d="M17.87,4.92l0,.66s10.12.65,20.93.65c5.24,0,10.64-.15,15.15-.6S62,4.46,63.84,3.1l.44-.33L64,2.29c-.16-.29-.57-.75-2.39-1.21S56.51.2,50.36.2H48.77S40.94.28,33.09.75c-3.92.23-7.84.56-10.82,1a21.38,21.38,0,0,0-3.66.84l-1.17.59L16.84,4.3l.6,1.12.16.14.22,0,0-.66.43-.5-.15-.16h0L18,4.3h.14v0L18,4.3h0l.11.06V4.3H18l.11.06a3.3,3.3,0,0,1,1.5-.69c3.27-1,10.63-1.52,17.07-1.81s12.06-.35,12.07-.35h1.58c6.08,0,9.31.43,11,.84a5.58,5.58,0,0,1,1.45.52l.14.1.25-.26-.32.16.07.1.25-.26-.32.16.59-.29-.4-.52c-1.31,1-4.85,1.83-9.27,2.25s-9.8.6-15,.6c-10.76,0-20.83-.65-20.85-.65l0,.66.43-.5-.43.5"/><path class="cls-1" d="M41,48.86h-.66a28.14,28.14,0,0,1-5.09,16.58c-3.21,4.32-7.69,7-13,7S11.75,69.74,7.89,65.4A25.14,25.14,0,0,1,1.51,48.86a24.87,24.87,0,0,1,5.63-16,17.68,17.68,0,0,1,13.49-6.64h.26c9.16.11,19.45,10.14,19.42,22.68h1.31c0-13.24-10.65-23.79-20.7-24h-.29C9.23,24.89.22,35.8.2,48.86c0,13.22,10.5,24.89,22,24.93,5.77,0,10.66-3,14-7.57a29.39,29.39,0,0,0,5.34-17.36H41"/><path class="cls-1" d="M21.52,25.78l-.47-.19.26.44.21-.25-.47-.19.26.44h0a7.89,7.89,0,0,1,2-.19A22.68,22.68,0,0,1,36.24,30c4.55,3.36,8.39,9.21,8.4,19.65a47.44,47.44,0,0,1-.27,5l.65.07-.65-.09a17.14,17.14,0,0,1-.52,2.24C42.64,61,39,69.44,28.68,71.24l.23,1.3a19.49,19.49,0,0,0,13.9-9.84,24.11,24.11,0,0,0,2.87-7.88h0v0A50,50,0,0,0,46,49.64c0-10.77-4-17.14-8.93-20.72a23.94,23.94,0,0,0-13.69-4.4,11.71,11.71,0,0,0-1.82.12l-.6.13-.6.49,1.21.5"/><path class="cls-1" d="M17,4.92v7.27c0,.16.33,1.61,2.49,2.54l.26-.6-.43.49.14.13a3.09,3.09,0,0,1,.88,1.56l.65-.08-.65,0v.31l.66,0-.66,0c0,.46,0,1.58,0,2.92,0,2.67,0,6.1,0,6.1h1.31s0-3.43,0-6.09c0-1.32,0-2.47,0-2.84v-.42a4.54,4.54,0,0,0-1.46-2.53l-.08-.07-.09,0a3.49,3.49,0,0,1-1.51-1.11l-.19-.34,0-.07-.13,0,.14,0h0l-.13,0,.14,0-.65.09h.66V4.92H17"/><path class="cls-1" d="M63.1,2.74v8.68h.11l-.11,0v0h.11l-.11,0s0,.43-1.32.86l-.11,0-.09.06c-.14.08-1.68,1.31-1.67,4.66a15.67,15.67,0,0,0,.47,3.6l.63-.15-.65.05a4,4,0,0,0,.77,1.94,5.57,5.57,0,0,0,4.36,2.1l0-.65-.08.65,13,1.56.16-1.3L65.61,23.23h0a4.26,4.26,0,0,1-3.39-1.57l-.45-.91-.06-.28v-.17a14.57,14.57,0,0,1-.43-3.3,6.11,6.11,0,0,1,.61-2.93l.38-.55.11-.1h0L62,12.88l.18.63c1.92-.51,2.31-1.72,2.27-2.09v0l-.66,0h.66V2.74H63.1"/><path class="cls-1" d="M67.88,45.1l-.66,0c-.05.94-.08,1.87-.08,2.78a33.31,33.31,0,0,0,2.26,12.84c1.43,3.31,3.51,5.59,6.18,5.77h.29c2.85,0,5.27-2.45,7.12-6.07a37.27,37.27,0,0,0,3.46-14.17c.05-.94.08-1.87.08-2.78A33.34,33.34,0,0,0,84.28,30.6c-1.43-3.31-3.51-5.59-6.18-5.77h-.29c-2.85,0-5.27,2.45-7.12,6.07a37.16,37.16,0,0,0-3.46,14.17l.66,0,.66,0a35.84,35.84,0,0,1,3.32-13.66c1.74-3.46,4-5.38,5.95-5.35H78c1.87.09,3.71,1.85,5.05,5a32,32,0,0,1,2.16,12.32c0,.89,0,1.79-.08,2.7a35.85,35.85,0,0,1-3.32,13.66c-1.74,3.46-4,5.38-5.95,5.35h-.21c-1.87-.09-3.71-1.85-5.05-5a32,32,0,0,1-2.16-12.32c0-.89,0-1.78.08-2.7l-.66,0"/><path class="cls-1" d="M74.81,65.22l-12.36-.87-.16.08A2.47,2.47,0,0,0,61,66.06v.06a13.59,13.59,0,0,0-.08,1.54c0,1.21.06,2.8.95,3.82a2.52,2.52,0,0,0,1.37.82l.16.15a5.73,5.73,0,0,1,.53,1l.6-.26-.66,0,.47,7.65.66,0h-.66a2.6,2.6,0,0,1-.66,1.51c-.68.84-2.08,1.91-5.06,2.53l.13.64-.12-.65s-2.77.51-6.89,1a125,125,0,0,1-14.88,1c-6,0-11.91-.69-15.32-2.68h0l0,0a2.68,2.68,0,0,1-1.21-2.41l0-.5V76.26a8.42,8.42,0,0,1,.09-1.07A5.06,5.06,0,0,1,21,73.33l-1.11-.7A7.91,7.91,0,0,0,19,76.26v5h.66L19,81.17l0,.66a4,4,0,0,0,2,3.6l.29-.59-.33.56c3.84,2.21,9.83,2.85,16,2.85a139.76,139.76,0,0,0,22-2.07h0c6.4-1.29,6.82-5,6.76-5.33v0l-.48-7.79,0-.11a6.51,6.51,0,0,0-.69-1.3l-1-.67-.6-.4a5.3,5.3,0,0,1-.59-2.93c0-.79.06-1.4.06-1.4l-.65-.07.65.13.32-.52.2-.15.06,0L62.59,65l0,.65,12.17.86.09-1.31"/><path class="cls-1" d="M19.4,75.9c.16.13,3.83,3.12,17.49,3.59h0a113,113,0,0,0,12.27-1,50.26,50.26,0,0,0,9.13-2c2.69-1,4.88-2.15,5.78-4l-1.19-.56c-.57,1.26-2.45,2.45-5,3.33a61.3,61.3,0,0,1-13.41,2.48c-4.29.39-7.59.45-7.59.45v.66l0-.66a52.12,52.12,0,0,1-13.47-1.86,15.92,15.92,0,0,1-2.58-1L20.36,75l-.12-.09-.84,1"/><path class="cls-1" d="M19.67,14.79A205.15,205.15,0,0,0,41.13,16c7.86,0,16.09-.6,21.47-2.76L62.11,12c-5,2-13.2,2.68-21,2.67a204.84,204.84,0,0,1-21.31-1.23l-.15,1.3"/><path class="cls-1" d="M61.92,26.34a53.31,53.31,0,0,0-4.53,21,38.34,38.34,0,0,0,3,15.13L61.55,62a37,37,0,0,1-2.85-14.61,51.5,51.5,0,0,1,2.2-14.48c.55-1.85,1.1-3.34,1.51-4.38s.68-1.58.68-1.58l-1.18-.57"/></g></g></svg>