<svg xmlns="http://www.w3.org/2000/svg" viewBox="0 0 81.78 84.9"><defs><style>.cls-1{fill:none;}.cls-1,.cls-2{stroke:#000;stroke-width:2px;}.cls-2{fill:#fff;}.cls-3{fill:#414042;}</style></defs><title>repair</title><g id="Layer_2" data-name="Layer 2"><g id="Layer_1-2" data-name="Layer 1"><ellipse class="cls-1" cx="40.89" cy="63.57" rx="39.89" ry="20.32"/><ellipse class="cls-1" cx="40.88" cy="63.55" rx="32.31" ry="16.46"/><path class="cls-1" d="M72.76,66.46c-1.61-8.13-14.57-14.87-31.88-14.87-15,0-28.35,6.17-32,13.21"/><path class="cls-2" d="M49.3,56V64a32.2,32.2,0,0,1-5.82.29"/><path class="cls-1" d="M49.3,53.62V64a66.6,66.6,0,0,1-8.64.29"/><path class="cls-1" d="M64.62,45.84c3.52-1.67,5.24-3.53,5.24-5.68V16a5.5,5.5,0,0,0,2.39-4.1C72.25,5.86,57.77,1,39.91,1S7.58,5.86,7.58,11.86c0,1.5.9,2.93,2.54,4.23V40.34L10,40.15C10,42.32,12,44.33,15.51,46c.21.62.73,2.11,1.8,5.13L17.2,51a3.6,3.6,0,0,0,1.34,2.56v8.11c0,1.69,1.65,3.25,4.43,4.51V56a37.7,37.7,0,0,0,7.33,1.82V68.52a62.3,62.3,0,0,0,9.48.7c2.14,0,4.22-.1,6.18-.29V58.26A42.59,42.59,0,0,0,56.62,56V66.69c3.58-1.34,5.76-3.12,5.76-5.06V51c0-.08.49-.87.49-1,.68-2,1.65-3.81,1.77-4.39"/><path class="cls-2" d="M72.25,11.86c0,6-14.48,10.86-32.33,10.86S7.58,17.86,7.58,11.86h0C7.58,5.86,22.05,1,39.91,1S72.25,5.86,72.25,11.86Z"/><path class="cls-2" d="M64.62,45.84c3.52-1.67,5.24-3.53,5.24-5.68V16a5.5,5.5,0,0,0,2.39-4.1C72.25,5.86,57.77,1,39.91,1S7.58,5.86,7.58,11.86c0,1.5.9,2.93,2.54,4.23V40.34L10,40.15C10,42.32,12,44.33,15.51,46c.21.62.73,2.11,1.8,5.13L17.2,51a3.6,3.6,0,0,0,1.34,2.56v8.11c0,1.69,1.65,3.25,4.43,4.51V56a37.7,37.7,0,0,0,7.33,1.82V68.52a62.3,62.3,0,0,0,9.48.7c2.14,0,4.22-.1,6.18-.29V58.26A42.59,42.59,0,0,0,56.62,56V66.69c3.58-1.34,5.76-3.12,5.76-5.06V51c0-.08.49-.87.49-1,.68-2,1.65-3.81,1.77-4.39"/><path class="cls-1" d="M7.58,11.86c0,6,14.48,10.86,32.34,10.86s32.33-4.86,32.33-10.86"/><path class="cls-1" d="M10,40.15c0,5.55,13.41,10.06,29.95,10.06s29.95-4.5,29.95-10.06"/><line class="cls-1" x1="62.15" y1="19.58" x2="62.15" y2="46.45"/><line class="cls-1" x1="14.57" y1="18.38" x2="14.57" y2="45.25"/><polygon points="67.09 44.31 67.09 18 64.65 18.79 64.65 45.63 67.09 44.31"/><path class="cls-2" d="M70,22.55h0c0,1.49-3.6,4.53-13.26,6.36h0a2.44,2.44,0,0,0,.91,4.8h0a38,38,0,0,0,12.16-4.13"/><path class="cls-2" d="M70,33h0c0,1.49-3.6,4.53-13.26,6.36h0a2.44,2.44,0,0,0,.91,4.8h0a39.31,39.31,0,0,0,12.43-4.44"/><path class="cls-1" d="M9.41,12.62v-.76A3.21,3.21,0,0,1,10.55,9.7a10.24,10.24,0,0,1,1.71-1.35C17.39,5,28.19,2.83,39.91,2.83c13.25,0,25.32,2.82,29.36,6.86a3.21,3.21,0,0,1,1.14,2.16c0,3.77-11.6,9-30.5,9-13.25,0-25.33-2.82-29.37-6.86a3.22,3.22,0,0,1-1.14-2.16"/><path class="cls-1" d="M44.52,20.74a20.75,20.75,0,0,0,1.69-5.08c.5-2.82-2.32-5.18-5.18-5.18s-6,2.45-5.18,5.18c.68,2.14.88,3.28,1.52,5.11"/><path class="cls-1" d="M69.86,40.15V16"/><path class="cls-2" d="M10.12,16.08V40.34"/><path class="cls-2" d="M10.09,27.69a31.32,31.32,0,0,0,7.27,4.08h0A2.44,2.44,0,1,0,19,27.16h0c-2.8-1.51-2.8-1.51-5.24-2.73l-3.66-2.85"/><path class="cls-2" d="M10.09,38.27a31.31,31.31,0,0,0,7.27,4.08h0A2.44,2.44,0,1,0,19,37.74h0c-2.8-1.51-2.8-1.51-5.24-2.73l-3.66-2.85"/><path d="M43.64,20.86A19.6,19.6,0,0,0,45,16a5.31,5.31,0,0,0-1-4.08,4.11,4.11,0,0,0-3.31-1.68v.31a4.57,4.57,0,0,1,2.77,1.76,4.67,4.67,0,0,1,.84,3.58,21.86,21.86,0,0,1-1.47,5Z"/><path class="cls-3" d="M15.18,46.09s8.45,4.38,24.43,4.27,23.51-3.46,25.14-4.17-1,2.24-1,2.24L63,50.87l-.31,11-.71,2-2.55,1.83-3,1.32-.2-10.69-6.92,1.53L49.3,64l-3,.37L46.22,69l-6.43.23-6.29,0-3.2-.67L29.94,58.1l-6.72-1.53v10l-2.85-1.22L18.84,63.9,17.93,62l.41-8.24L17,52.3l.3-1.19Z"/></g></g></svg>