<svg xmlns="http://www.w3.org/2000/svg" viewBox="0 0 149.25 149.28"><defs><style>.cls-1{fill:#e2231a;}.cls-2{fill:#f1f2f2;}</style></defs><title>whyus-qualityprod</title><g id="Layer_2" data-name="Layer 2"><g id="Layer_1-2" data-name="Layer 1"><path class="cls-1" d="M0,74C-.07,33.94,33.43.07,73.21,0c42.6-.07,75.88,33,76,75.49.15,40.1-34.09,73.87-74.84,73.8C32.89,149.21.08,116,0,74Z"/><path class="cls-2" d="M127.55,43c.16,1.76-.83,3.15-2,4.53q-27.51,33.18-55,66.35c-5,6-11.81,5.88-16.69-.14Q39.47,96,25.23,78.13c-2.86-3.58-3-7.14-.61-9.83,2.74-3.07,6.64-3.37,10.53-.49,7.58,5.62,15.12,11.28,22.51,17.14,2.44,1.94,3.94,2.09,6.44-.1,17.11-15,34.39-29.89,51.63-44.78a17.44,17.44,0,0,1,3.46-2.59C123.39,35.4,127.64,38.2,127.55,43Z"/></g></g></svg>