<svg xmlns="http://www.w3.org/2000/svg" viewBox="0 0 145.17 145.17"><defs><style>.cls-1{fill:#e2231a;}.cls-2{fill:#f1f2f2;}</style></defs><title>marketresearch</title><g id="Layer_2" data-name="Layer 2"><g id="Layer_1-2" data-name="Layer 1"><circle class="cls-1" cx="72.58" cy="72.58" r="72.58"/><path class="cls-2" d="M55.76,20.27,68.83,35.09l-12.65,11L71,60.45c3.91-3.27,8.18-6.3,7.21-14.45C76.7,33.18,89,23.4,102.51,26.19c-2.37,2.82-4.26,5.29-6.38,7.54-4.16,4.43-5,12.13-.85,14.59,4.63,2.72,9.85,4.21,14-1.7,1.68-2.37,4.28-4.09,6.66-6.29,5.14,11.89-5.75,24.35-19.95,24.5-4,0-8,1.69-12,2.6l-.37,3,21.89,21.9c3.06,3.06,6.17,6.08,9.18,9.19,4.32,4.46,5.55,9.44.71,14.07-4.52,4.32-9.38,3.1-13.54-1Q89.67,102.5,77.62,90.23c-1.95-2-3.48-4.39-5.89-7.47L50.36,105.25c-2.28,2.4-4.46,4.92-6.88,7.17-4.27,4-9.11,6.49-14,1.43-4.71-4.82-3.1-9.87,1.18-14.14,6.85-6.84,13.89-13.49,20.86-20.21,3.27-3.15,6.56-6.27,10.28-9.82L44.67,54.54c-7.52,1.78-10.06,9.3-12.48,17-5.35-5.93-5.69-14.74.21-23.26,6.73-9.72,14.51-18.72,21.83-28Z"/></g></g></svg>