<svg xmlns="http://www.w3.org/2000/svg" viewBox="0 0 149.25 149.28"><defs><style>.cls-1{fill:#e2231a;}.cls-2{fill:#f1f2f2;}.cls-3{fill:#707070;}</style></defs><title>whyus-globalprodev</title><g id="Layer_2" data-name="Layer 2"><g id="Layer_1-2" data-name="Layer 1"><path class="cls-1" d="M0,74C-.07,33.94,33.43.07,73.21,0c42.6-.07,75.88,33,76,75.49.15,40.1-34.09,73.87-74.84,73.8C32.89,149.21.08,116,0,74Z"/><path class="cls-2" d="M98.76,115.63c-2.23,3.14-3,6.59-3.41,10.47-.32,3.44-4.49,6-8.34,6-8.25.08-16.5.12-24.75,0a8.62,8.62,0,0,1-8.67-9.36c.08-1.75,0-3.15-1.49-4.41a7.26,7.26,0,0,1-2.1-4.48c-.31-1.74-1-1.46-1.86-.47l-.19.17c-3.57,3.27-3.56,3.26-7.07-.26-3.2-3.21-6.36-6.45-9.64-9.57-1.31-1.25-1.47-2.08-.09-3.46,4.21-4.17,4.2-4.25,1.59-9.4a38,38,0,0,1-2.48-6.83,1.78,1.78,0,0,0-2.09-1.56c-1.68.05-3.37,0-5,0-1.27.05-1.79-.37-1.78-1.72.06-5.89,0-11.78,0-17.68,0-1.44.62-2,2-1.83,4.55.73,7.63-.37,8.34-5.62A14.78,14.78,0,0,1,34.24,50c1.19-1.84.72-2.91-.72-4.29-4-3.84-3.94-3.91,0-7.81,3.21-3.21,6.46-6.38,9.61-9.65,1-1.06,1.9-1.39,2.79-.09,2.74,4,5.81,4.86,10,1.79,1.74-1.28,4.17-1.7,6.36-2.24,1.44-.36,2-1,1.92-2.42,0-.17,0-.34,0-.5.07-5.93.07-5.93,5.89-5.93,4.29,0,8.59.05,12.88,0,1.55,0,2.28.3,2.25,2.07,0,2-.82,4.3.38,5.9s3.51,1.25,5.26,2a66.27,66.27,0,0,1,6.56,3.07,1.8,1.8,0,0,0,2.58-.28c1.63-1.51,3-4.4,5-4.14,1.73.22,3.17,2.77,4.72,4.32,2.8,2.79,5.54,5.64,8.4,8.37,1.2,1.14,1.45,1.91.13,3.24-4.19,4.23-4.09,4.27-1.64,9.67a35.5,35.5,0,0,1,2.36,6.32c.39,1.65,1.22,2,2.65,1.91s3,0,4.54,0c1.31-.06,1.82.5,1.81,1.77,0,6,0,12,0,17.93,0,1.28-.6,1.51-1.7,1.56-2.26.09-5.08-1-6.61.44s-1.55,4.13-2.39,6.22a37.38,37.38,0,0,1-2.48,5.19c-.74,1.25-.72,2.16.43,3a1.74,1.74,0,0,1,.16.19c4.3,4.45,4.3,4.45-.13,8.88-2.91,2.91-5.91,5.73-8.7,8.75-1.36,1.47-2.31,1.61-3.55,0a31.67,31.67,0,0,0-2.27-2.37c0-.58-.32-1-.92-.87s-.63.5-.22.92l-.16.9A1.34,1.34,0,0,0,98.76,115.63ZM75,40.21a27.58,27.58,0,0,1,11,2c11.57,4.7,18.47,13.32,20.12,25.54,1.55,11.41-2.39,21.2-11.36,28.6a6,6,0,0,0-2.44,5.81c.23,2.33,2.05,3.31,4,2,3.63-2.45,2.8-2.51,6.08.73.36.35.73.7,1.06,1.08.77.88,1.35.79,2.23,0,3.91-3.66,4-3.66.25-7.6-1-1.07-1.12-1.87-.25-3a39.44,39.44,0,0,0,6.79-14.41c.42-1.69-.16-3.94,1.2-5s3.58-.3,5.42-.36c1.14,0,1.57-.44,1.66-1.64.4-5.56.44-5.56-5.21-5.75h-.5c-1.36,0-1.86-.61-2-2A37.14,37.14,0,0,0,108,51.67c-.89-1.51-2.46-2.88-2.67-4.46-.25-1.93,2.15-2.74,3.28-4.13.6-.74.92-1.26.28-2.18-2.86-4.11-4-4.26-7.42-.84l-.16.19c-1.09,1.43-2.1,1.39-3.58.31a35.9,35.9,0,0,0-17.2-7.07c-1.67-.19-2.62-1-2.37-2.83.1-.74-.07-1.53,0-2.27.32-2.14-.56-2.71-2.64-2.64-4.42.14-4.55,0-4.39,4.6.08,2.23-.88,3-2.85,3.23-5.09.54-9.66,2.56-14,5.09-1.51.87-2.91,2.52-4.44,2.62-1.8.12-2.8-2.1-4.09-3.35-.95-.91-1.58-.78-2.5.06-3.9,3.57-4,3.59-.26,7.34,1.17,1.18,1.31,2,.26,3.4a36.17,36.17,0,0,0-7,16.47c-.35,2.41-1.12,3.29-3.42,3-.75-.09-1.52,0-2.27,0-1.67-.14-2.16.62-2.18,2.23-.08,5.1-.14,5.1,4.95,5.16.34,0,.67,0,1,0,1.15-.05,1.6.47,1.73,1.63a35.66,35.66,0,0,0,7,17.5c1.27,1.71,1.2,2.77-.34,4.23-3.22,3-3,3-.14,6.15,1.53,1.66,2.45,1.87,4.06.06,2.63-3,2.76-2.85,6.39-.75,1.47.85,3.83.27,4-1.2.19-2.15.6-4.26-1.67-6.12C44.52,88.24,40.47,76.78,44,63.36A31.2,31.2,0,0,1,75,40.21Zm3.07,52.5c0,3.11,0,6.23,0,9.34,0,.83-.09,1.6,1.15,1.83,5.13,1,6.19.16,6.19-4.94a8.63,8.63,0,0,0,0-1.51c-.4-2.22.65-3.39,2.5-4.58A23.93,23.93,0,0,0,99.35,75,24.73,24.73,0,0,0,67.67,48.21c-10.2,3-16.11,10.2-17.59,20.48-1.42,9.85,2.44,18,10.68,23.62,2.68,1.83,3.53,3.65,3.38,6.7-.24,5-.07,4.89,4.88,4.91,1.87,0,2.22-.69,2.2-2.36-.09-5.38-.12-10.77,0-16.15.05-2.16-.35-3.56-2.39-4.86C63.68,77.25,62.68,71,66.1,65.76,69,61.31,75.64,60,80.4,63a10.57,10.57,0,0,1-.7,18.15,2.67,2.67,0,0,0-1.61,2.73C78.15,86.82,78.11,89.76,78.11,92.71Zm-3.36,21.84c4.88,0,9.75,0,14.63,0,1.46,0,3-.18,3-1.82s-1.42-2-2.9-2q-14.75,0-29.5,0c-1.46,0-3,.21-3,1.83,0,1.84,1.65,1.94,3.17,1.93C65,114.53,69.88,114.55,74.76,114.55Zm0,7c-3.86,0-7.71,0-11.57,0-1.36,0-2.71.1-2.67,1.83,0,1.45,1.19,1.86,2.49,1.86H86.2c1.27,0,2.46-.3,2.53-1.8.09-1.78-1.25-1.89-2.6-1.89C82.35,121.53,78.58,121.52,74.81,121.52Zm3.38-49.63a3.67,3.67,0,0,0-3.42-3.6A3.62,3.62,0,0,0,71.2,72a3.49,3.49,0,1,0,7-.09Z"/><path class="cls-3" d="M99.54,113c-.42-.42-.25-.82.22-.92s.88.29.92.87Z"/><path class="cls-3" d="M98.76,115.63a1.34,1.34,0,0,1,.62-1.77A1.25,1.25,0,0,1,98.76,115.63Z"/></g></g></svg>