<svg xmlns="http://www.w3.org/2000/svg" viewBox="0 0 149.25 149.28"><defs><style>.cls-1{fill:#e2231a;}</style></defs><title>consistentflow</title><g id="Layer_2" data-name="Layer 2"><g id="Layer_1-2" data-name="Layer 1"><path class="cls-1" d="M0,74C-.07,33.94,33.43.07,73.21,0c42.6-.07,75.88,33,76,75.49.15,40.1-34.09,73.87-74.84,73.8C32.89,149.21.08,116,0,74Zm94.38-.18c3.6,0,6.17.17,8.71,0,2.9-.25,3.6.72,3.37,3.63-1.7,22-27,35.51-47.06,25.14-3-1.56-5.37-5.91-8.58-4.74s-5.29,4.83-7.88,7.4a5.54,5.54,0,0,1-.59.56c-1.64,1.2-1.36,2.2.11,3.43,11.83,10,25.3,14.4,40.61,11.37,21.88-4.34,37-21.75,38.62-44,.15-2.1.74-2.84,2.84-2.73,2.9.15,5.81,0,8.72,0l.49-.93Q124.68,64,115.63,55.14c-1-1-1.71-1-2.69,0C107,61.17,101,67.16,94.38,73.83ZM16,75.25l-.32,1Q24.44,85,33.21,93.68c.82.81,1.56,2,3,.63,6-6.08,12.09-12.13,18.8-18.85-3.68,0-6.36-.21-9,.05-3.37.34-3.68-1.06-3.28-4A32.51,32.51,0,0,1,90.74,47c2.72,1.45,4.65,5.61,7.78,4.44,2.77-1,4.69-4.32,7-6.6a12.34,12.34,0,0,1,1.16-1.13c1.66-1.26,1.64-2.22,0-3.73C80.22,15.76,36.24,29.55,28.44,64.59c-.78,3.5.09,8.51-2,10.27S19.59,75.25,16,75.25Z"/></g></g></svg>