<svg xmlns="http://www.w3.org/2000/svg" viewBox="0 0 145.2 145.2"><defs><style>.cls-1{fill:#e2231a;}.cls-2{fill:#f1f2f2;}</style></defs><title>whyus-customerservice</title><g id="Layer_2" data-name="Layer 2"><g id="Layer_1-2" data-name="Layer 1"><circle class="cls-1" cx="72.6" cy="72.6" r="72.6"/><path class="cls-2" d="M62.33,19.49h19.9c13.55,4.34,24.27,11.41,27.08,26.77.86,4.73,2.81,9.26,4.23,13.89,2.91,9.49-.08,15.23-9.19,17.65-5,1.32-5.75,5.72-1.49,10,3.94,4,7,7.66,5.9,14.1-1,6,.38,12.38-.89,18.25-.5,2.3-5.36,5.1-8.3,5.17-18.2.47-36.43.61-54.61-.11-3.17-.13-8.93-5.06-8.74-7.38.7-8.4-3.75-17.33,2-25.25,1.16-1.6,2.67-3,3.48-4.78,1.07-2.35,2.2-5,2.08-7.41,0-1-3.31-2.39-5.2-2.56-6-.55-8.53-4-7.86-9.42.62-5,3.13-9.82,3.44-14.8C35.26,35.19,45.12,24.4,62.33,19.49ZM53.9,83.91c8.86,13.22,20.25,15.42,31.41,6.76C92.89,84.8,97,77,97.8,67.4c.69-7.9-5-15-12.45-12.83-10.57,3.06-17.43-1.73-22.87-6.83-4.82,4.63-9.32,8.71-13.5,13.1a8.55,8.55,0,0,0-2.32,5.35c.09,11.64,9.21,17.39,20.84,14.2,3.06-.84,6.93,1,10.31,2,.32.09.16,4-.25,4.14-3.45.8-7.1,1.84-10.51,1.4C62.87,87.37,58.86,85.49,53.9,83.91Zm49.87-29.64A24.41,24.41,0,0,0,91.93,28.47C80.22,21.85,59.42,23,49.44,30.76a23.54,23.54,0,0,0-8.28,24.86c4-18.49,13.84-28.31,32.26-27.86C90.87,28.19,99.56,38.26,103.78,54.27Z"/></g></g></svg>