<?xml version="1.0" encoding="utf-8"?>
<!-- Generator: Adobe Illustrator 21.1.0, SVG Export Plug-In . SVG Version: 6.00 Build 0)  -->
<svg version="1.1" id="Layer_1" xmlns="http://www.w3.org/2000/svg" xmlns:xlink="http://www.w3.org/1999/xlink" x="0px" y="0px"
	 viewBox="0 0 145.7 145.7" style="enable-background:new 0 0 145.7 145.7;" xml:space="preserve">
<style type="text/css">
	.st0{fill:#E2231A;}
	.st1{fill:none;stroke:#F1F2F2;stroke-width:5;stroke-miterlimit:10;}
	.st2{fill:#F1F2F2;stroke:#EB0029;stroke-miterlimit:10;}
</style>
<title>whyus-globaldist</title>
<g id="Layer_2">
	<g id="Layer_1-2">
		<circle class="st0" cx="72.8" cy="72.8" r="72.8"/>
		<path class="st1" d="M123.3,73c0,28.7-23.3,51.9-51.9,51.9S19.4,101.7,19.4,73c0-28.7,23.3-51.9,51.9-51.9
			c13.6,0,26.6,5.3,36.4,14.9C117.6,45.7,123.3,59.1,123.3,73z"/>
		<path class="st1" d="M29.7,39.8c0,0,21.2,10,41.4,10s42.4-9.1,42.4-9.1"/>
		<path class="st1" d="M29.7,105c0,0,21.2-10,41.4-10s44.9,10,44.9,10"/>
		<polyline class="st1" points="17.1,73 65.7,73 125.8,73 		"/>
		<path class="st1" d="M52.4,24.6c0,0-8.9,30-8.3,53.8c0.5,18.9,2.7,28.6,11.8,43.7"/>
		<line class="st1" x1="71.8" y1="19.5" x2="71.8" y2="127.3"/>
		<path class="st1" d="M92,24.3c0,0,11.2,43.5,8,61"/>
		<path class="st2" d="M80.3,68l32.8,5.4c0,0,8.2-10,14.8-10.6c6.6-0.6,6.2,6.4,3.4,10.6c-2.5,3.4-5.3,6.5-8.4,9.4l5.6,33.2l-6.6,6
			c0,0-11-17.9-12.6-19.9s-6.4-0.2-8.4,1.2s-11,9.2-11,9.2s1.8,12.4-0.6,14.6s-6.8-11-6.8-12.2s-14-5.8-14.4-8s11.8-2,15.2-1.8
			s13.2-14.8,13.2-14.8v-3.6l-22-13.4L80.3,68z"/>
	</g>
</g>
</svg>
