<?xml version="1.0" encoding="utf-8"?>
<!-- Generator: Adobe Illustrator 24.1.1, SVG Export Plug-In . SVG Version: 6.00 Build 0)  -->
<svg version="1.1" id="Layer_1" xmlns="http://www.w3.org/2000/svg" xmlns:xlink="http://www.w3.org/1999/xlink" x="0px" y="0px"
	 viewBox="0 0 193 42" style="enable-background:new 0 0 193 42;" xml:space="preserve">
<style type="text/css">
	.st0{display:none;fill:#2E3192;}
	.st1{fill:none;stroke:#FFFFFF;stroke-width:0.3551;}
	.st2{fill:#FFFFFF;}
	.st3{fill:none;stroke:#FFFFFF;stroke-width:0.3555;}
	.st4{fill:none;stroke:#FFFFFF;stroke-width:0.2162;}
	.st5{fill:#FFFFFF;stroke:#FFFFFF;stroke-width:0.5;}
	.st6{fill-rule:evenodd;clip-rule:evenodd;fill:#FFFFFF;}
</style>
<rect x="0" class="st0" width="193" height="42"/>
<g>
	<g>
		<path class="st2" d="M36.9,2.6c-10.2,0-18.4,8.2-18.4,18.4c0,10.1,8.2,18.4,18.4,18.4c10.1,0,18.4-8.2,18.4-18.4
			C55.2,10.8,47,2.6,36.9,2.6z M36.9,36c-8.3,0-15-6.7-15-15c0-8.3,6.7-15,15-15c8.3,0,15,6.7,15,15C51.8,29.3,45.1,36,36.9,36z"/>
		<path class="st2" d="M27.9,11.1h3.4v10.9c0,0.7,0.2,1.3,1.2,1.3c0.9,0,1.2-0.8,1.2-1.4V11.1H37v10.5c0,2.5-1.1,4.3-4.6,4.3
			c-2.9,0-4.5-1.4-4.5-4.3V11.1"/>
		<polyline class="st2" points="38.4,30.9 38.4,16.4 41.7,16.4 41.7,28 45.9,28 45.9,30.9 38.4,30.9 		"/>
		<path class="st2" d="M32,29h0.4c0.3,0,0.4,0.2,0.4,0.4c0,0.1,0,0.4,0.1,0.6h0.3v-0.1c-0.1,0-0.1-0.1-0.1-0.1c0-0.2,0-0.3,0-0.5
			c0-0.3-0.1-0.4-0.4-0.4v0c0.3,0,0.4-0.2,0.4-0.5c0-0.5-0.3-0.6-0.8-0.6h-0.6V30H32V29 M32,27.9h0.4c0.2,0,0.5,0,0.5,0.4
			c0,0.4-0.3,0.4-0.4,0.4H32V27.9"/>
		<path class="st4" d="M32.5,30.8c1.1,0,1.9-0.9,1.9-1.9c0-1.1-0.9-1.9-1.9-1.9s-1.9,0.9-1.9,1.9C30.5,29.9,31.4,30.8,32.5,30.8z"/>
	</g>
	<g>
		<path class="st5" d="M83.3,4.4c-0.1,0.1,0,0.3,0.1,0.4l29.3,13.3c0.1,0.1,0.3,0,0.4-0.1c0.1-0.1,0-0.3-0.1-0.4L83.7,4.3
			C83.5,4.2,83.4,4.3,83.3,4.4z"/>
		<path class="st5" d="M83.3,14.2c-0.1,0.1,0,0.3,0.1,0.4l26.7,12.6c0.1,0.1,0.3,0,0.4-0.1c0.1-0.1,0-0.3-0.1-0.4L83.7,14
			C83.5,14,83.4,14,83.3,14.2z"/>
		<path class="st5" d="M83.2,3.9C83.1,3.9,83,4,83,4.2l0,0.2c-0.1,4.9,0.1,9.4,0.3,12.7c0,0,0.1,0.9,0.1,0.9l0.1,0.8
			c0.3,2.6,1,4.2,1.4,5.1l0.2,0.5c0.9,2,2.5,4,3.6,5.3l0.1,0.1c1.3,1.6,3.9,4.2,9.4,7.5l0.3,0.2c0.1,0.1,0.2,0.1,0.3,0l0.2-0.1
			c2.6-1.6,7.3-4.8,9.6-7.9c0,0,0.6-0.8,0.6-0.8c0.9-1.2,2-2.7,2.7-4.3c0.3-0.8,1.1-2.8,1.3-5.6c0-0.2,0.1-0.7,0.1-1.4l0-0.4
			c0.4-5.5,0.4-12.9,0.3-13.1c0-0.1-0.1-0.2-0.3-0.2H83.2 M113.2,4.5c0,0.3,0,1,0,1.9c0,2.5-0.1,6.9-0.4,10.8c0,0,0,0.4,0,0.4
			c0,0.4-0.1,1.1-0.1,1.3c-0.2,2.8-1,4.7-1.3,5.5c-0.6,1.6-1.7,3-2.6,4.2l-0.6,0.8c-1.7,2.2-5.1,5-9.5,7.7c0,0,0,0,0,0
			c-0.1,0-0.1-0.1-0.2-0.1c-5.4-3.2-8-5.8-9.3-7.3c0,0-0.1-0.1-0.1-0.1c-1-1.3-2.6-3.3-3.5-5.2c0,0-0.2-0.5-0.2-0.5
			c-0.4-0.9-1.1-2.4-1.4-4.9c0,0-0.1-0.8-0.1-0.8l-0.1-0.9c-0.2-2.7-0.4-6.3-0.4-10.3c0-0.8,0-1.6,0-2.4C84,4.5,112.6,4.5,113.2,4.5
			z"/>
		<path class="st5" d="M91.7,11.5v3c0,0.4,0.1,0.6,0.2,0.9c0.2,0.4,0.5,0.5,1,0.5c0.6,0,1-0.2,1.2-0.6c0.1-0.2,0.2-0.5,0.2-0.8v-3
			h0.7v2.7c0,0.6-0.1,1.1-0.2,1.4c-0.3,0.6-0.9,0.9-1.7,0.9c-0.8,0-1.4-0.3-1.7-0.9c-0.2-0.3-0.2-0.8-0.2-1.4v-2.7H91.7z"/>
		<path class="st5" d="M97.2,14.2h2.2c0.4,0,0.8,0.1,1.1,0.4c0.3,0.2,0.4,0.6,0.4,1c0,0.4-0.1,0.7-0.4,1c-0.2,0.3-0.6,0.4-1.1,0.4
			h-1.5v2.1h-0.7V14.2 M99.8,14.9c-0.1-0.1-0.3-0.1-0.6-0.1h-1.3v1.7h1.3c0.3,0,0.5-0.1,0.7-0.2c0.2-0.1,0.3-0.3,0.3-0.7
			C100.1,15.3,100,15,99.8,14.9z"/>
		<path class="st5" d="M106.4,17.3c0.3,0.3,0.5,0.7,0.6,1.1h-0.7c-0.1-0.3-0.2-0.6-0.4-0.7c-0.2-0.2-0.5-0.3-0.9-0.3
			c-0.5,0-0.9,0.2-1.1,0.5c-0.3,0.3-0.4,0.9-0.4,1.6c0,0.6,0.1,1,0.4,1.4c0.3,0.4,0.7,0.5,1.2,0.5c0.5,0,0.8-0.2,1.1-0.6
			c0.1-0.2,0.2-0.5,0.3-0.8h0.7c-0.1,0.5-0.2,0.9-0.6,1.3c-0.4,0.4-0.9,0.6-1.6,0.6c-0.6,0-1-0.2-1.4-0.5c-0.5-0.5-0.8-1.2-0.8-2.1
			c0-0.7,0.2-1.3,0.6-1.8c0.4-0.5,1-0.8,1.7-0.8C105.5,16.8,106,17,106.4,17.3z"/>
		<path class="st2" d="M114.2,37.1c-0.6,0.6-1.3,0.9-2.2,0.9c-0.9,0-1.6-0.3-2.2-0.9c-0.6-0.6-0.9-1.3-0.9-2.2
			c0-0.9,0.3-1.6,0.9-2.2c0.6-0.6,1.3-0.9,2.2-0.9c0.9,0,1.6,0.3,2.2,0.9c0.6,0.6,0.9,1.3,0.9,2.2C115.1,35.8,114.8,36.5,114.2,37.1
			 M110.1,33c-0.5,0.5-0.8,1.1-0.8,1.9c0,0.7,0.3,1.4,0.8,1.9c0.5,0.5,1.1,0.8,1.9,0.8c0.7,0,1.4-0.3,1.9-0.8
			c0.5-0.5,0.8-1.2,0.8-1.9c0-0.7-0.3-1.4-0.8-1.9c-0.5-0.5-1.1-0.8-1.9-0.8C111.3,32.2,110.6,32.5,110.1,33 M111.9,33.2
			c0.4,0,0.7,0,0.9,0.1c0.4,0.1,0.5,0.4,0.5,0.9c0,0.3-0.1,0.5-0.3,0.7c-0.1,0.1-0.3,0.1-0.5,0.2c0.3,0,0.5,0.2,0.6,0.3
			c0.1,0.2,0.2,0.4,0.2,0.5v0.2c0,0.1,0,0.2,0,0.3c0,0.1,0,0.1,0,0.2l0,0h-0.6c0,0,0,0,0,0c0,0,0,0,0,0l0-0.1v-0.3
			c0-0.4-0.1-0.6-0.3-0.8c-0.1-0.1-0.4-0.1-0.7-0.1h-0.5v1.3h-0.6v-3.4H111.9 M112.6,33.8c-0.1-0.1-0.4-0.1-0.7-0.1h-0.5v1.2h0.5
			c0.3,0,0.4,0,0.6-0.1c0.2-0.1,0.4-0.3,0.4-0.5C112.8,34,112.7,33.8,112.6,33.8z"/>
		<path class="st2" d="M84.1,32.7c0.4,0.4,0.6,0.8,0.7,1.3H84c-0.1-0.4-0.2-0.6-0.5-0.9c-0.2-0.2-0.6-0.3-1-0.3
			c-0.5,0-1,0.2-1.3,0.6c-0.3,0.4-0.5,1-0.5,1.8c0,0.7,0.2,1.2,0.5,1.6c0.3,0.4,0.8,0.6,1.4,0.6c0.6,0,1-0.2,1.3-0.7
			c0.2-0.2,0.3-0.5,0.3-0.9h0.8c-0.1,0.6-0.3,1.1-0.7,1.5c-0.4,0.5-1,0.7-1.8,0.7c-0.7,0-1.2-0.2-1.6-0.6c-0.6-0.5-0.9-1.3-0.9-2.4
			c0-0.8,0.2-1.5,0.7-2.1c0.5-0.6,1.1-0.9,2-0.9C83.1,32.1,83.7,32.3,84.1,32.7z"/>
	</g>
	<g>
		<g>
			<path class="st6" d="M166.6,29.8c1.1,0.9,2.1,1.8,3.1,2.7c-3.6,4.8-10.8,8.1-18.1,6.5c-8.3-1.8-13.7-8.5-14.5-16
				C136.2,14.5,141,7.1,148.3,4c7.4-3.1,15.4-0.8,19.8,3.8c-0.9,0.9-1.8,1.7-2.8,2.6c-3.8-3.4-8.2-4.8-13.2-3.8
				c-3.8,0.8-6.8,2.8-8.9,6c-4,5.8-3.2,13.6,1.8,18.5c2,1.9,4.4,3.2,7.1,3.8c2.7,0.6,5.4,0.4,8-0.5C162.7,33.6,164.9,32,166.6,29.8z
				"/>
			<path class="st6" d="M156.4,8.7c4.3,0.7,7.7,2.9,9.5,6.8c2.3,4.9,1.5,9.2-1.8,13.2c-0.8-0.7-1.5-1.4-2.3-2
				c1.4-2.3,1.5-2.6,1.4-3.8c-0.1,0-0.3,0-0.4,0c-0.9,0-1.8,0-2.7,0c-0.6,0-0.6,0-0.6,0.6c0,2.7,0,5.3,0,8c0,0.3-0.1,0.5-0.4,0.6
				c-0.9,0.2-1.8,0.5-2.7,0.8C156.4,24.8,156.4,16.8,156.4,8.7z M159.7,19.3c0.6,0,1.2,0,1.8,0c0.6,0,1.2,0,1.8,0
				c0.2-2.2-1.9-5.6-3.7-6.1C159.7,15.2,159.7,17.3,159.7,19.3z"/>
			<path class="st6" d="M143.4,23.4c1,0,2,0,3,0c0.1,0,0.3,0.2,0.3,0.4c0.7,2.3,2.2,3.8,4.3,4.9c0,0,0.1,0,0.2,0c0-0.1,0-0.3,0-0.4
				c0-1.9,0-3.7,0-5.6c0-0.2-0.1-0.5-0.3-0.7c-2-2.2-4-4.4-6.1-6.6c-0.2-0.2-0.2-0.4,0-0.6c1.4-2.2,3.1-3.9,5.4-5
				c1.2-0.6,2.5-0.9,3.9-1c0,1.7,0,3.3,0,5c-0.8,0-1.7,0-2.6,0c0-0.3,0-0.7-0.1-1.1c-1.3,0.4-2.1,1.3-2.7,2.6
				c0.4,0.4,0.8,0.7,1.2,1.1c1.3,1.3,2.6,2.6,3.9,4c0.1,0.1,0.3,0.4,0.3,0.6c0,3.9-0.1,7.8-0.1,11.6c0,0,0,0.1,0,0.1
				C149.3,32.6,144.3,28.2,143.4,23.4z"/>
		</g>
		<g>
			<path class="st2" d="M174.5,21.1c0,1.4-1.1,2.6-2.6,2.6c-1.5,0-2.6-1.1-2.6-2.6c0-1.4,1.2-2.5,2.6-2.5
				C173.4,18.5,174.5,19.7,174.5,21.1z M169.9,21.1c0,1.1,0.8,2,2,2c1.1,0,1.9-0.9,1.9-2c0-1.1-0.8-2-1.9-2
				C170.8,19,169.9,20,169.9,21.1z M171.5,22.4h-0.6v-2.5c0.2,0,0.6-0.1,1-0.1c0.5,0,0.7,0.1,0.9,0.2c0.1,0.1,0.2,0.3,0.2,0.6
				c0,0.3-0.2,0.5-0.5,0.6v0c0.2,0.1,0.4,0.3,0.5,0.6c0.1,0.4,0.1,0.5,0.2,0.6h-0.6c-0.1-0.1-0.1-0.3-0.2-0.6c0-0.3-0.2-0.4-0.5-0.4
				h-0.3V22.4z M171.5,21h0.3c0.3,0,0.6-0.1,0.6-0.4c0-0.2-0.2-0.4-0.5-0.4c-0.2,0-0.3,0-0.3,0V21z"/>
		</g>
	</g>
</g>
</svg>
