<svg xmlns="http://www.w3.org/2000/svg" viewBox="0 0 575.1 292.61"><defs><style>.cls-1{fill:#036;}</style></defs><title>Asset 1</title><g id="Layer_2" data-name="Layer 2"><g id="map_USA"><g id="CA"><path class="cls-1" d="M5.12,82.61c.45-2.07-.18-3.7.42-5.55.52-1.61,9,1.63,10.56,2,7.39,2,14.82,3.83,22.25,5.68.36.09-4.78,20.85-5.3,23-.66,2.78-1.35,5.54-2,8.32-.29,1.18,3,4.55,3.62,5.47C42.56,132.79,52,146.11,63,161.93l7.1,10.19c.69,1-.1,2.94.45,4.35.9,2.3,6.2,5.45,3.25,6.9-2.52,1.23-2.58,2.2-3.25,4.71s-4.29,3.06-3.47,6.3c.28,1.1,1.47.55.68,2.78-.49,1.4-1.52.68-2.4.8-4.38.59-10.37-1.55-14.7-2.25-2.59-.41-9.72.07-9.88-3.43l.37.81c-.14-.17-.11-.75-.52-1.25l-.21.56c.7-6.63-2.08-8.46-5.18-13.76-1-1.76-2-.71-3.06-2-.28-.33.1-2.21-.46-2.91s-2.82-.63-3.77-1.27c-2.31-1.52-2.4-3.58-4.46-5.24-1.36-1.1-4-1.65-5.61-2.51-6-3.13-1.32-2.9-2.26-8.18-.14-.79-1.17-.9-1.59-1.44-.73-.94.48-1.15.33-1.95-.34-1.81-2.83-3.18-3-5.11a14.63,14.63,0,0,0-2.76-6.36c-2.2-2.76,1.31-4,1.58-5.2.78-3.31-2.83-2.9-3.68-5.84a18.59,18.59,0,0,1-.28-4.57c1.49-5.43,1.27.42,3.86,1.91-.5-.95-2.14-5.71-1.31-6.53,1.06-1.06,7.36,1.47,7.67,2.32a1.8,1.8,0,0,0-2.59-1.27c.44-.28.55-.64.88-.92-.87.6-3.11.27-3.93,0-2.27-.81-.86-1.8-3-.8-1.31.62,1.22,2.72-1.34,1.64-1.62-.69-.82-2.72-2.83-2.26A10.64,10.64,0,0,1,4.53,118L5,119.43a4,4,0,0,0-1-2.62c.21-2.13-4.58-7.29-3.32-8.66.83-.9.72-4.22.9-5.44s.7-2.19.53-3.53C1.54,95-1.53,94.1,1,89.85c.62-1.07,1.35-1.39,1.92-2.32,1-1.57,1.27-3.19,2.25-4.92"/></g><g id="OR"><path class="cls-1" d="M4.75,72.72C2,68.8,6.21,62.3,7.81,58.87l.29.64c1.11-.72.32-.84,1.24-.57-.18-.21.27-.62-.51-.57a5.2,5.2,0,0,1,2.55-2.87l-.8.25c1.36-2.93,6-17,8.38-17.29-.3-2.27,1-4.53,1.82-7.21.32.3.75.56,1,.83,0,.09-.44-.67-.22-.57,2.19.44,7.65,1.41,7.22,4.74-.77,6,4.88,4.15,9,4.35,1.83.09,3.57,1.25,5,1.75a21,21,0,0,0,6.48.35c5.44-1.19,11.23-.19,16.62.92,1.51.31,15.92,2.22,12.81,6.76-1,1.48-10,10.64-8.89,12.12,1.33,1.75,2.43.92,1.06,3.73a40,40,0,0,0-2.7,8.6C67.72,76.66,67,84.93,65.5,86c-1.36.93-8.88-1.63-10.71-2C38,80.52,21.46,76.35,4.75,72.72"/></g><g id="WA"><path class="cls-1" d="M28.08,27.21A22.64,22.64,0,0,0,24,26l.89-3.63c-.13.59,0,1.46-.14,2.13.22.14.81.4,1.1.55-.4-1.26-.35-3.25,1.37-2.67-1.33-.52-2.5-1.54-1.78-3.29.82.69.79.22,2.4.07a14,14,0,0,0-2.06-1.51l-.21.69a73.54,73.54,0,0,0-.14-9.94,47.74,47.74,0,0,1,.14-6.24c2.33,1.57,4,3.18,6.44,4.46,1.75.91,4.68.7,4.73,2.54.11.09.84.52,1.23.82.24-.76.43-.67.82-1.3.07,1.83.35,3.42-1.17,4.8.09-.46.1-.9.21-1.37-1,1.36-6.21,5-1.78,4.25a10.81,10.81,0,0,1-1.44.07c-.08-2,3.65-3.22,5-4.8.24,1.6.42,1.33-1,1.71-.1.31.12,1,.07,1.44L38,14.53v.75c1.56.24.86,1.88-.14,3.15L37.13,18l.62-.75a6.72,6.72,0,0,0-1.58,1.85c.19-.62.23-1.44.41-2.12a30.63,30.63,0,0,1-2.67,1.78,12.79,12.79,0,0,0,1,1.37c.33-.63.52-.59.89-1.1,2.88,3.1,9.39-11.61,4.73-12.61V5.61a4.69,4.69,0,0,1,1.23.55c.15-.74-.07-.78-.14-1.44l.68.34C43,3,40.59,2.44,41,1c.62-2.45,6.78.53,8.87,1.09,7.8,2.1,15.67,3.9,23.54,5.72,2.3.53,8.43.88,9.21,2.38.92,1.78-2,9.23-2.39,11.14C78.66,28.45,76.83,35.33,77,42.36c-11.35-2.34-21.76-4-32.67-3.53-1,0-3.13-2-5-2.09S36,37.88,34,36.81c-3.65-1.91.06-4.52-2.43-6.79-1.19-1.08-2.64-1.47-3.46-2.81"/></g><g id="NV"><path class="cls-1" d="M35.23,109l5.48-22.6c.83-3.41,2.88-3.52,6.08-2.77s16.48,3.58,18.76,4.49c4.89,1.95-.21,3.38,4.71,4.28,1.05.19,20,3.6,19.93,4l-1.34,7.52C86,120,83.23,135.48,80.38,151.22c-.31,1.71-.37,8.84-2.87,9.47-1.1.28-2-2.9-3.83-1.95S72.2,169,71.59,171.18Q62.36,157.56,53.06,144c-4.79-7-11.59-16-16.38-23-3.55-5.18-3.06-5.61-1.45-12"/></g><g id="AZ"><path class="cls-1" d="M67.62,198.71c4.88,1.13.65-4.33,1.14-6.14.28-1.07,1.9-1.51,2.41-2.55.4-.82.36-2.22.78-2.87,1.18-1.86,3.9-3.28,4-4.83.1-1.09-2.75-4.32-2.84-5.88-.13-2.31.73-4.46,1-6.76.15-1.57-.16-4.52.35-5.75,1.29-3.08,3.75.86,4.29.82,3.25-.24,3.09-5.46,3.55-7.78.76-3.85,5.37-1.28,9-.74,8.25,1.23,16.51,2.52,24.8,3.52,1.05.13,11.62,1.35,11.61,1.45l-1,7.47-4.48,32.71-2.62,19.18c-.15,1.08-17.65-1.68-19.26-1.89-5.36-.7-12.3-6.3-17.23-8.91l-12.85-6.82c-2.06-1.09-5.4-1.91-2.58-4.21"/></g><g id="ID"><path class="cls-1" d="M69.39,89.52,72,75.85c.58-3,2.41-7,2.61-9.83.13-1.93-2.55-3.76-.64-5.82a27.19,27.19,0,0,0,4.9-6.78c.54-1.15,2.77-3.23,2.81-4.36.05-1.74-1.44-2.28-2-3.7-1.12-2.64-.44-6.3,0-9C81,27.42,83.37,18.64,84.94,9.75c1.56.35,6.31.74,7,1.94s-1.32,7-1.61,8.57c-.51,2.74,4,14.15,5.43,16.66,1.21,2.16,4,3.39,3.41,5.24-1.23,3.72-6,15.15,1.69,10,1.57,2.58.86,7.24,2.08,9.63.86,1.69,1.61,1.5,2.61,3.38.63,1.17,4,.32,5.14,1.67.86-2.42,4.55-.31,7.52.71,4.65,2,2.91,4.28,2.59,6.66-1.06,7.79-3.13,16.59-4.19,24.38C100.74,96,85,93,69.39,89.52"/></g><g id="UT"><path class="cls-1" d="M82.72,152.74c3.27-18.27,5.54-37.53,8.8-55.8,5.4,1.08,11.86,2,17.31,2.78,1.57.24,7.93.24,7.67,2-.5,3.4,0,3.81-.51,7.21l15.91,2.17c1.26.17-.57,9-.73,10.32-1.43,11.31-2.86,26.62-4.29,37.93-14.44-1.9-29.82-4-44.16-6.6"/></g><g id="MT"><path class="cls-1" d="M92.42,20,96.35,9.5c7.24,1.47,87.1,13.95,87.19,12.6-.18,2.67-2.7,44.43-3.46,44.37-15.16-1.21-30.18-2.73-45-4.84-2.75-.39-2.95-.78-5.7-1.17-1.47-.21-7.18,3-8.21,6.8-2.27-.49-10-4.47-11-2.1-.36-.37-1.93.39-3.46-.93s-3-4.76-3.23-5.5c-.76-2.85.49-6.06-1.2-8.71-1.55-.83-3.12-1.47-2.42-5.14.36-1.88.89-3.82,1.27-5.14C101.15,39.75,94.25,35.86,92.42,20Z"/></g><g id="WY"><path class="cls-1" d="M119.45,96.08,122,78.63c.14-1,.43-9.26,1.33-11.24s3.91-3.19,4.79-4.05c2-2,11.81,1.11,14.63,1.47,5.21.67,6.44.3,11.67.81,5.6.55,11.19,2.13,16.8,2.57.94.07,8.46,0,8.39.93l-.64,9c-.8,11.32-3.57,24.63-4.33,36-2.32-.18-4.62-1.37-6.9-1.58-16.48-1.45-32.29-3.37-48.89-5.64.69-4.64.18-7.94.6-10.82"/></g><g id="NM"><path class="cls-1" d="M121.15,224.42c2.65-16.87,4.31-33.95,6.44-50.89l1.27-10.05c.38-3,1.89-1.65,4.83-1.31,7.66.9,18.33,1.84,26,2.48,8.15.68,16.29,1.34,24.46,1.85,2.13.13.2,5.26,0,6.56-.48,3.73-.46,8.59-.69,12.35-.51,8.26-1,16.5-1.76,24.75-.32,3.62-.49,7.26-.73,10.89-.26,3.93-5.24,2-8.24,1.77-8.5-.57-17-1.36-25.48-2.26.38.7.36,1.85.82,2.53-5-.51-13-2.08-18.05-2.63-1.07-.12-.43,4.35-1.31,4.71-1.89.75-5.58-.5-7.6-.75"/></g><g id="CO"><path class="cls-1" d="M129.37,159.64c2.23-17.62,4.88-48.41,6.6-48.2,2.77.34,21.25,2.46,27.74,3s13.79,3,20.41,3.49c3.93.28,6.87.37,8.8.47,2.1.1.76,5.78.69,7.15-.63,12.53-1.23,27.06-1.84,39.59-20.54-1.3-42-3.05-62.4-5.46"/></g><g id="TX"><path class="cls-1" d="M150.22,225a6.67,6.67,0,0,1-.78-2.46c3.83.42,33.76,4.18,33.94,1.28.83-13.12,1.86-26.22,2.65-39.34.09-1.43-.46-6,.43-7.17,1.19-1.59,4.57-.63,6.87-.49,5.84.34,11.78.25,17.59.79,2.54.24.66,16,.58,18.68-.07,2.43,5.29,6.26,7.43,3.67,1,.69,4,1.22,4.58,1.43a24.33,24.33,0,0,0,6.33,1.37c.52,1.32,1.23,4.07,3.05,2.2.95-1,2.79,1.59,4.81.73-.1,2.87,2.18-.32,3.53-.67s2.61,1.55,4,2.46a9.24,9.24,0,0,1,9.37-2.8c2.54.83,4.58,2.35,6.79,2.77,3,.55,1.9,12.12,2,15,.11,3.67,1.41,6.19,2.82,9.36.47,1.06,1.51,2.19,1.85,3.3.16.52,0,1.8.2,2.33.38,1-.95,5.5-1.4,6.23-.7,1.13,1.08,2.74-.1,4.06s-2.46,2.32-.78,3.83c-2.87-.05-6.22,2-8.38,3.66a4.69,4.69,0,0,1,2.73-2.13c-.9.21-1.79.12-2.73.4,1-1.93.24-3.71-1.17-1.4l-1-.6c-.23,2.47,1.59,2.81.1,5-2.13,3.12-4.3,5.25-8.35,6.13l.13.67a9.28,9.28,0,0,1,1.36-.6c-1.37.74-2.83,1.35-4.16,2.2a15.32,15.32,0,0,0,1.63-1.67l-1.36.6.39-.47c-.69-.06-.63.14-.91-.6-1-.25-.89.27-1.89-.53l.58,1.33c-.6-.33-1.12-.21-1.82-1.07l-.71.07a4.29,4.29,0,0,1,1,2.53,5.16,5.16,0,0,1,1.36.2c-1.24,1.58-2.87,1.79-3.7-.2.3,1.28.24,3-1.3,3.66a3.5,3.5,0,0,0,.2-1.33,5.18,5.18,0,0,1-.84,1.33c-.64-.37-.59,0-1.56-.27a1.52,1.52,0,0,0,.45,1.6c.33-.39.63-.74,1-1.13a6.34,6.34,0,0,1-1.69,3.2c-1.14-.68-1.43-.48-2.79-.33.34.05.71,0,1,.07a3.89,3.89,0,0,1-1.3,5.86l.65-.53a2.81,2.81,0,0,1-2.92-1.13c.39,1.7,1.34,2.7,3.25,1.93,0,2.17-1.89,2.76-.58,4.33l-.65-.27c1.08,2.73,1.79,6,2.86,8.86h-.71l.52.93.52-.73-.2.73.78-.67.13.8c-4,1-1.16.73-4.81-.6a18.87,18.87,0,0,0-2.86-.4c-2.47-.53-2.58-.86-4.61-1.8-1.38-.64-2.22-1-3.57-1.67-3-1.52-2.55-.52-3.83-4.13-.72-2-1.95-3-1.95-5.16,0-.52-.32-3.71-1-4.3-3.22-2.64-5.31-6.31-6.89-9.86-2.62-5.9-7.54-16-14.85-14.59-1,.18-1.58-.8-2.5-.8-.69,0-.72.93-1.69.83-3-.31-2.22,3.35-3.9,4.5a29,29,0,0,0-2.44,3.23c-.54,1.67-3.76-1.38-4.34-1.66-2.46-1.17-6.17-3.35-7.91-5.77-2.27-3.17-1-7.36-3.05-10.59-1.69-2.6-5.14-4.53-7.16-7.33a47,47,0,0,0-4.15-4.6,12.24,12.24,0,0,0-4.15-2.33"/></g><g id="NE"><path class="cls-1" d="M176.68,114.52c.46-7.31.91-13.62,1.37-20.94,0-.25,21.68.93,23.38,1,6.48.38,13,.64,19.47.75,1.37,0,3.46-.34,4.78.08s7.12,2.26,8.57,2.5c.52.09,1.75-.7,2.5-.74a6.8,6.8,0,0,1,3.94.68c5.84,2,6.85,7.13,7.95,13.05.38,2.06,2.49,4.93,2,8.32-.43,2.86,2.46,7.13,4.09,9.33-18.61.2-40.16-.29-58.76-1,.08-1.76,1.49-10.1.16-10.89-2.48-1.46-10-.93-12.73-1.15"/></g><g id="SD"><path class="cls-1" d="M180.47,90.9,181.29,80c.21-2.81-.35-7.37.88-10,.52-1.09.41-9.31.94-9.28,4.36.27,9.72.54,14.08.8,14.35.88,32.74,1,47.11,1-.17,1.31-2.34,3.55-2.34,3.55l3.81,7.81-.37,16.9s1.86,8.89,1.57,9.36c-1.28,2-.29-5.5-8.88-5.14-2.14.22-2.68,1.94-4.5,1-3.26-1.69-11.37-3.33-15.3-3.39-12.28-.18-25.56-.88-37.81-1.74"/></g><g id="ND"><path class="cls-1" d="M183.3,59.19c.8-11.77,1.86-23.56,2.38-35.35C202.84,25,220,25.79,237.22,25.79c.4,11.79,4.1,23.7,5.18,35.5-19.75-.1-39.4-.78-59.1-2.09"/></g><g id="OK"><path class="cls-1" d="M187.45,172.95c.11-1.83-.78-4.66-.67-6.49,18.46,1.17,37.91,2.61,56.4,2.61q6.3,0,12.59-.12c2.12,0,4-1,4.07,1.33a49.63,49.63,0,0,0,.64,7.25c1.57,9.35,1.4,18.51,1.47,28-2.18-.35-3.29-1.27-5.11-2.4-2.24-1.4-1.73.69-3.7.13-2.18-.62-6,0-7.6,1.94-1.44-.91-3.88-2.81-5.16-2.48s-2.64,3.65-2.61.67c-2.68,1.11-2.43-.9-4.42-1.27-.26,0-2.31,2.62-2.45.74-.05-.77-.9-1.58-1.24-2.41-2.68-.41-3.92.5-6.53-.37-.69-.23-2.72-.3-3.18-.64-.63-.46-.57-.14-1.54-.81-1.35,1.67-5.76-.24-5.66-2,.34-6.05,1.39-11.13,1.58-17.18.12-3.95-6-3.57-9.07-3.71-5.44-.24-12.36-.44-17.8-.75"/></g><g id="KS"><path class="cls-1" d="M194.1,165.11l1.73-35.35c19.07,1,38.12,1.29,57.22,1.1,2.14,0,6.15.62,6.36,2.86,0,.1-2.37,1.21-1.87,2.45a16.68,16.68,0,0,0,2.3,3.38c.82,1,2,.94,2,2.37l.19,8.21q.18,8,.37,15.92c-22.8.43-45.54.06-68.33-.93"/></g><g id="MN"><path class="cls-1" d="M239.33,25.5c2.95,0,6.9,1.07,9.85,1,4.66-.13,4.77.46,4.69-4.2,2.71.1,2.4,2.58,3,4.7.63,2.34,2.25,4.74,4.84,5.06,2,.25,1.39.43,2.55,1.13s1.82-.88,2.71-1c1.61-.12,4.78-.57,4.76,1.63a6.07,6.07,0,0,1,2.38,2c.57-1.8,3.59-.85,4,.81.64,2.81,4.91-.93,5.86-1.29.19,1.6,1.8,1.6,3.39,1.12,2.13-.65,2.66,1.51,5.09.64-2.07,2.09-4.82,3-7.24,4.55-2.78,1.83-4.22,5.31-6.54,7.63s-3.69,3.11-3.56,6c.07,1.61.49,3.39-.34,4.84s-2.53,1.29-3,3.12c-.14.54-1.14,2,.24,2.14,1.6.18.51,3.62.49,4.65,0,2.49-.76,5.52,2.56,6.14,4.35.81,8.17,7.41,9.09,11.23-12.46.8-23.91,2.24-36.39,2.36,0-1.86-.56-15.79-.56-15.79l-1.91-6.18L244,65.72a17.34,17.34,0,0,0,1.47-2.34c.13-.46-.15.24-.62-1.6-.07-.28-1.14-.57-1.22-.87-.61-2.35-.41-7.41-1-10.71a241.14,241.14,0,0,1-3.27-24.7"/></g><g id="IA"><path class="cls-1" d="M248.28,102.08a5.44,5.44,0,0,1-.06-5.64c.46-.8-.6-3.32-.83-4.45,12.56,0,25.1-.5,37.63-1.25.83,1.7,0,6.93,2.06,7.93,2.3,1.1,6.73,4.83,6.35,8-.31,2.57-1.68,3.24-3.46,4.65-1.38,1.1-2.37-.27-2.65,1.85-.22,1.6,2,2.1.72,3.91-.44.61-2.39,4.31-2.51,4.13,2,3-2.92-1.12-2.59-1-1.67-.6-6.56.67-8.53.79-3.36.21-6.71.44-10.08.52s-6.93,0-10.4,0c-1.34,0-1-4.12-1.11-5.2a28.64,28.64,0,0,0-1.55-6.64c-.65-2-1.82-6.51-3-7.64"/></g><g id="MO"><path class="cls-1" d="M254.8,126.56c8.24.07,16.46,0,24.68-.73.76-.07,8.75-.83,7.33,2.22-.85,1.84.29,5.06,1.35,6.64,1.22,1.84,3.93,2.53,5.07,4.38.72,1.17.38,3.1,1.54,4,.42.32,1.14-1.1,2.09-.62,2.38,1.18,2.16,3.24.73,5.81s3.24,4,3.85,5.48c4.13-1,3.72,5.51,4.73,7.12,1.18,1.86,2.68,1.55,3.43,3.08.49,1-.23,3-.41,4-1.41,0-1.44.12-2.27,1.44-.09-.29-.18-.91-.26-1.25a5,5,0,0,1-.49,2.47c0,1.08.59.46-.47,1.44,1.67,2-.85,2.62-2.58,2.74-3.69.26-2,0-2-2,0-1,2.06-1.11.68-2.87s-4.8-.68-6.58-.63q-9.44.28-18.87.36c-2.39,0-4.78,0-7.17,0-5.2-.07-4.7.17-4.86-5.05q-.29-9.31-.55-18.62c-.06-2,0-3.31-.8-4.83-.42-.84-2.76-2.4-2.86-3.52-.08-.95,1.41-2.55,1.43-2.44-.27-2-1.63-1.14-2.91-2.17a14.31,14.31,0,0,1-3.78-6.44"/></g><g id="AR"><path class="cls-1" d="M262.31,173.29c4.93-.13,36.85-3.8,37.69-.07.31,1.37-2.52,2.32-2,3.38.23.53,7,.73,5.15,1.48-1.27.51-1.77,4.25-2.21,5.64-1.14-.44-.15-.14-1,.56l.64-.21c.59,2.19-1.28,6.49-2.82,6.13l.19,1.62c-.55-.44-.2,0-.7-.71.26.94,0,.79.64,1.48l-.64.35-.19-.7c.78,2.78-1,4.59-2.75,5.56.72,1.28.48,2.4-1.15,3,.36,1.56.33,1.28-.39,2.26.22.77.07.3.7.77a9.49,9.49,0,0,0-1.28.42,8.43,8.43,0,0,1-.06,2.75l.64-.63.39.49-.64.49s.78.21.7.14c.94,3.85-.13,4.58-4.3,4.83q-10.33.62-20.66,1c0-1.19.54-5.38-.19-6.2s-2.6.26-3.14-.21c-1.85-1.62-.68-7.75-.7-10a158.76,158.76,0,0,0-1.86-23.61"/></g><g id="LA"><path class="cls-1" d="M266.19,215.22c8.54-.33,17-.77,25.58-1.27,0-.13-.4,1.06-.4,1.06,1.91-.87.45,1,1.52,2.19-.87,1.18-1,1.47.6,1.2-.6,1-.08.51-.07,1.41-.32.11-.43-.26-.73-.07.74.78,1,1.45,2,2a9.55,9.55,0,0,0-2.25,1.91,8.48,8.48,0,0,0,1.39,0c-.68.77-.45.81-1.26,1.2.37.27-1.8,4.76-2.77,5.52l.66.07a6.14,6.14,0,0,1-1.26,2.4c.44,1.37.8.75-.59,1.48a2.64,2.64,0,0,1,.13,3c1.69-.11,17-2.18,17.65-1.13,1,1.51-1.8,3.54.3,5.48,1.16,1.08.89,2.55,2.21,3.57-2.32.81-4.5-2.54-6.81-1.56-2.54,1.08-1.4,3.14.46,3.4a6.82,6.82,0,0,0,4.36-1.49l.07.71c.27-.09.65-.36.86-.42-2.89,2-.31,3.86,1.85.71a5.69,5.69,0,0,1,.66,3.4c-1.53-.34-1.71.31-.79,1.63-.49-.16-.94-.09-1.39-.21-1.49,2.44,4.85,3.13,6.21,5-.25.47-.66,1.38-1.06,2.12l-.93-1.2c-.4.76-1.11,1.46-1.45,2.19a5.93,5.93,0,0,0,.66-3l-.07.92a5.62,5.62,0,0,0-4.63-2.12c.63-1.68-2.12-1.92-3.64-2.62.77,1,2.21,2.22,1,3.26.39,1.26.19,1.56-1.12,2.26,0-1.5-1.37-2.6-2.25-2.41-1.37.31-1.8,2.66-2.48,2.26-1.92-1.11-6.05-1-5.12-5.09-.37,3.13-4-1.78-5.82-1,0-.37,0-.82.07-1.2-1,.46-2.1.86-3.11,1.2.64.51.62,1.18,1.12,1.7-3.77,1.7-8.13-1.06-11.83-2.05,1.1-.82,1.07-1.8,0-2.83-.28.73-.58,1.77-.79,2.4,1.24,1.57-3.11,2-3.5,1.77-1-.59-.14-2.34,0-3.25.24-1.61.58-3.49.73-5.17.11-1.33,1.33-3.57,1.12-4.77-.53-3.13-.23-5.21-2.45-8.17-3.14-4.21-2.49-11.16-2.64-16.48"/></g><g id="WI"><path class="cls-1" d="M279.46,50.47c3.34,3.26,12.06-7.18,9,1.09A6.26,6.26,0,0,1,294,52.65c2.9,2.32,7.46,3.26,11.36,4.08,1.25.26,2.5.23,3.78.38,2,.23,1.22,1.5,3,2,2.74.86-.44,5.13,2.72,4.18-1.18,2.15.95,2.29.54,4-.23,1-3.55,2.45-2.65,4.49s1.72-1.36,2.45-1.9c1.44-1.08,3.53-1.77,2.46,1.14-1.48,4-1.16,8-1.92,12.16-.83,4.6.9,7.44,1,11.88-7.45.47-22,4.58-26.68-1.23-.68-.84-.79-2.81-1-3.88-.12-.57.48-1.35.34-2.11,0-.14-.94-.76-1-1.22-.58-3.26-.84-4.29-3.27-6.4-2.66-2.31-4.73-4.29-7.79-5.68-4.24-1.93-.61-6-1.26-9.08-.34-1.64-2.09-1.24-2-3,.08-1.3,2.24-2.92,3.2-3.4,3.11-1.56-.39-6.54,2.25-8.64"/></g><g id="IL"><path class="cls-1" d="M289.47,124.92c.24-2,2.53-3.07,2.53-4.81,0-1.51,1.07-2.27,1-3.94,0-.89-2.81-3.33-.13-3.91,3.21-.7,7.12-3.57,6.14-7.51-.38-1.54-3.45-4.48-4.44-5.42,6.16-.38,12.31-.74,18.45-1.33.68-.07,3.62-.81,4.22-.41.82.55-.14,1.35.34,2.24a46.83,46.83,0,0,1,2.18,4.77c1.93,4.85,1.71,10.67,2.18,15.94.37,4.16,2.5,12.1.68,15.61-.52,1,.8,3.38,1.13,4.41.56,1.77-1.1,3.89-1.81,5.53-1,2.37-.8,6.4-2,8.24s1,1.4-1.77,3.29c-1.76,1.19-1,1.38-.48,3.15.63,2.23-9-2-5.84,2.75-4.69-.34-2.56-11.44-7.85-10-1.29-3.79-4.46-2.55-3.28-7.52.45-1.88,1.73-3.56-.41-4.63-1.24-.62-2.5.92-2.93.65-1.55-.94-.6-3.84-2-5.06a27.37,27.37,0,0,1-3.48-3.07c-2-2.29-3.89-5.83-2.39-9"/></g><g id="MS"><path class="cls-1" d="M297,211.38c.37-1.57.8-2.49.35-4.32.08.15-.67-.13-.68-.13l.64-.46L297,206l-.64.59a5.38,5.38,0,0,0,.17-2.56,4.89,4.89,0,0,1,1.25-.39c-1.11-.79.65-1.06-.2-2.79a1.69,1.69,0,0,0,1.2-2.71c1.7-.92,3.33-2.43,2.79-5l.16.63.62-.32c-.68-.61-.33-.46-.56-1.32l.16.69.49-.06-.14-1.45c1.27-.07,1.09.09,1.25-1.32,3.93-.31,14.11-2.81,17.43-.75,2.2,1.37-.09,19.56-.14,22.37a134.15,134.15,0,0,0,.89,19.22c.24,2,1.75,6.67.8,8.6-.32.66-3.91,0-4.87-.25l1,.07c-3.95,1.35-6.93,5.08-8.49-1-.92-3.62,2.07-5.4-2.73-5s-9.47.73-14.22,1a2.72,2.72,0,0,0,0-3.06c1.38-.73,1-.13.64-1.48a6.81,6.81,0,0,0,1.31-2.39l-.64-.07c1-.74,3.23-5.16,2.89-5.42.75-.39.59-.44,1.24-1.17a5.35,5.35,0,0,1-1.33,0,17.24,17.24,0,0,1,2.21-1.85,5.79,5.79,0,0,1-1.75-2l.62.2c-.38-.72-.44-.69.11-1.36l-1.14.2c.1-.68.22-.62.61-1.35-.59-1.16.25-2.81-1.36-2.09a9.19,9.19,0,0,1,.42-1"/></g><g id="TN"><path class="cls-1" d="M303.83,185.77a3,3,0,0,0,1.57-3.93l-.65.18c.79-.45,0-.85,1-.48a4.47,4.47,0,0,1,1.11-2.14c-.12-1.92,2.47-3.26,1.31-5.89,1-.74,1.19-1.43.85-2.74l.59-.06-.13.48c2.21-1.4,13.93.4,11.83-3.21,8.66,1.05,18.37-1.57,27.13-2,9-.43,17.75-2.8,26.67-3.42,0,1-2.3,5.82-3.17,5.21-.51-.36-5.28,2.43-5.26,2.35-.19.87-4,4-5.59,4.64s-6,2.75-6,4.57c0,2.73-1.2,1.84-3.66,2.12s-5,.59-7.45.86c-4.41.49-8.81,1-13.23,1.27-9,.65-17.66,1.53-27,2.18"/></g><g id="KY"><path class="cls-1" d="M315.26,167.08c1.36-1.09,2.6-2.4,2.06-4.84-1.06-4.76,2.52-1.12,4.25-1.65,2.29-.7-1.21-3.18,2.43-4.09.36-.09,1.9-4.35,1.94-4.77.65,0,1.45-.22,1.94-.19l.13.69c.36-.67.48.1.44-.87a4,4,0,0,1,4.12.88c.43-1.19,1.11-1.46,2-2.25.57.76,1.14.63,1.81,1.25.27-1.46,1.23-2.65,1.44-3.68,2.93,4.26,4.68-1.15,5.74-3.18.11-.22,2.09-3.23,1.37-3.15.82-.08,5.45-.66,4.12-2.12-1.74-1.92.88-2,1.84-2.31,1.44-.43,1.64.89,2.47,1.22a24.39,24.39,0,0,0,3,1.31c2.92.84,5.2,1.53,7.93-.87.82,2.06,3.77,2.37,3.09,5.06-.46,1.84,4.25,6.17,6,6.06-4.78,5.62-8.17,10.92-15.8,11.93-5.38.71-10.88,1.37-16.31,1.63-5,.24-10.38,1.78-15.35,1.12,1.93,3.55-8.36,2.68-10.68,2.87"/></g><g id="IN"><path class="cls-1" d="M324,148.36c-.85-2.46.52-4.48,1.77-6.6,2-3.36.35-4.1.06-7.19-.26-2.8.25-6.63-.09-10.13-.51-5.37-1.18-10.75-1.5-16.13,2.05,1.94,4.87-.95,7.2-1.18,2.72-.28,10.37-2.74,12.36-1.49,3.19,2,3.25,21.52,3.64,25,.11,1,.88,4.56.6,5-.7,1.07-3.05.75-3.68,1-1.65.66.05.72-.62,1.62-1.66,2.19-3.93,9.47-7.1,4.86-.2,1-1.16,2.21-1.43,3.68-.67-.61-1.23-.49-1.81-1.25-.89.79-1.56,1.06-2,2.24a4,4,0,0,0-4.11-.87c0,1-.08.21-.44.87l-.12-.68c-.49,0-1.28.21-1.93.19.55,1.32-.33.73-.81,1.12"/></g><g id="AL"><path class="cls-1" d="M322.91,187.2c4.57-2.4,16.16-1.67,22-2.35,2.29-.26,6.42,18.39,7.14,21,.59,2.14,1.75,3.57,2.7,5.43,1.25,2.43.32,2.44.07,4.42-.4,3.24.06,9.61,2,12.38-7.21.86-14.41,1.73-21.63,2.46-4,.41-1.79,1.25-1,3.39.46,1.27,1.4,4.14-1,4.15-.33,1.49-1.89,1.45-3.6,1.63,1.71-.1,2.64-1.14,1-2-1.13-.62-.38-2.53-1.73-3.54-.2.87-.32,4.22-.82,4.22-1.92,0-2.37.07-2.61-1.69-.68-5.14-2.1-10.64-2-15.83q.19-10.08.37-20.17c.06-3,1.85-11.49-.79-13.44"/></g><g id="MI"><path class="cls-1" d="M328.31,105.56c1.89-1.43,3.07-4.79,3.6-7,.88-3.62-1.45-8.26-.58-11-3.37.56-2-4.57-2.16-5.9-.15-1-1.07-2.38-1-3.31.12-1.23,1.45-2.37,1.58-3.78.22-2.44-.38-3.93.9-5.87a32.57,32.57,0,0,1,3.89-4.61,12.94,12.94,0,0,0-.22,4.82c.23-.71.88-1.79,1-2.3-.11.73-.13,1.51-.22,2.23,2.16-2.28-.95-7.31,3.67-7.13-2.31-2.29-.16-4.54,2.16-4.75,1.82-.16,5,1.64,6.55,2.41.21.11,7.6,3.5,5.11,4-.87.17,3.24,7.6.43,9.29a43.16,43.16,0,0,0-2.16,3.74c-.38.93-2.17,3.9.47,4.14,2.91.27,2.55-3.92,5.22-5.08,4.3-1.86,5.17,4.3,6.12,7.78.63,2.31,3,6.65.22,8.5-.55-3.82-2.05,2.42-2.81,3-1.37,1-.55,2.37-1,3.78-1,2.91-2,3.78-4.78,4.35-8.37,1.7-17.29,2.12-26,2.7"/></g><g id="FL"><path class="cls-1" d="M338.05,237.56c.2-1.8-3.9-4.83-2.32-6,2.2-1.65,8.09-.53,10.92-.76,3.17-.26,10.56-2.47,12.39.36s3.17,1.95,6.77,1.89l18.17-.27,5.37-.08c1.43,0,1,2,2,2.14,2.07.33.17-4.19,1-4.95,1.2-1.06,5.75.28,5.28,2.19l-.42-.53c3.3,4,4.09,10.42,7,15,1.51,2.33,4.67,4.84,5.65,7.45.88,2.33,0,4.46,2.13,7.06-2.18-2.36-2-4.18-2.46-7-.14-.83-2.3-1.67-2.85-2.49,1.68,5.63,7.84,11,8.14,16.57,4.16.8,3.4,10.8,3.53,14.23l-.25-.73c-.49,2.71-.82,5.16-1.18,7.73l-.83-.33.38.33c-1.2-.15-8,3.51-6.44-.21.48.25,1,.63,1.48.92l.39-.65c-4-1.17-4.42-5.48-8.91-6.06l.66-.26c-2.65-1.1-4.27-5.6-2.37-7.68a6.1,6.1,0,0,1-2.4,2.19c-.4-1.48-.89-3.6-.07-4.47a5.12,5.12,0,0,1-2.48,0c.76.63.79,1.09,1.28,1.86-3.57,0-4.3-5.52-6.86-7.17l.69.57c.65-1.21,2.94-3.84,1.33-5.35l-.68.67c-.51-.66-1.14-.87-1.72-1.5.79,1,.4,1,1.38,1.56a3.84,3.84,0,0,1-.81,2.12,18.33,18.33,0,0,1-1.45-1.21l.76,1.06c-2.94-2.21.42-6.72-.44-9.61-1.17-3.89-.78-5.26-4.74-6.62-2.23-.77-5.75-5.14-7.07-7-1.15-1.65-8.21-4.24-7.6-.68l-1-.34c.8.42.73.65,1.25,1.22-1.77-.51-10.7,6.07-10.45,1.34.18.5.18,1,.4,1.55l.73-.19c-.37-2.43-3-3.21-4.46-4.52a4.8,4.8,0,0,0,2.83.72c-1.62-.47-4.07-1.25-2.15-3a4.51,4.51,0,0,1-2.66.53c.55.57.87,1.34,1.32,1.83-2.45-1.7-5.41-2.21-8.24-2.85a5.56,5.56,0,0,1,4,.2c-.83-1.46-2.8-1.2-3.58-1.52-1.53,2-4.91,1.79-7.21,2,2-.27,2.19-1.3,1-2.65-.15.56-.58,1.08-.7,1.61l-.42-1.07-.44.43a2.51,2.51,0,0,1-2.8,2.78c1.24-1.13.81-1.32.22-2.16"/></g><g id="OH"><path class="cls-1" d="M348.83,106.27c2.81-.46,6.82-1.93,9.68-1.72,1.81.14,3.39,2,5,.92l.55.61a8.22,8.22,0,0,0-1.59.86c1.21-.59,2.2-.33,3.55-.06.73.15,2.84-1.39,3.56-1.72,1.78-.82,2.5-.7,4.08-2.45s4-2.77,5.91-3.92c1.31,7.74,2.51,13.54,1.72,20.65,0,.38-.22,1.84-.37,2.57s-.85,1.24-1.32,2c-.91,1.47-2.3.92-2.73,1.32-1.84,1.72-1.59,3.71-2.27,5.76-2.15-3.32-2.13,2.91-2.64,3.68-1.49,2.26-3.75,1.75-4.9-1.16-2,1.72-3.65,1.74-5.79,1.93-3.78.34-5.49-4.84-9.35-3.34-1-8.65-2-17.29-3.07-25.92"/></g><g id="GA"><path class="cls-1" d="M395.92,219.54l.5-1.44c-.25,0-.9-.13-1.08-.14.55-1,.29-.38.36-1.37l.79.5a5.6,5.6,0,0,0,.22-1.15l-.72.29-.14-.72c1.43-.4,1.35-1.26.65-2.3,1.3.6,2-.3,2.45-1.66-1.53-.14-3.61-.54-3.42-2.45.22-2.21-3-2.58-3.38-4.07-1-3.59-4-5.66-6.44-8-2.29-2.15-7.87-5.05-9.21-8.43a6.87,6.87,0,0,0-4.9-3.67c-2.92-.58-.39-3.24.29-4.68-6.32,1-12.59,1.92-18.94,2.63-2.52.28-6.33-.34-4.72,3.49,1.21,2.87,2.77,5.76,3.6,8.76,1.18,4.27,1.82,12.7,5.34,15.94s-1,5.72.36,9.5c1.19,3.39.52,7.53,3.35,10.37,3.13,3.14,12.85.56,17.64.21l8.69-.63c2.83-.21,1.82-.31,2.44-2.56.44-1.62,2.93-.33,4.14-.21,1.55.15.94-1.84,1.15-3.06h-.51c-.14-.9.62-.41-.29-1.37l.72.43.36-.79-1-.07.29-.72c2.16-.09,1.61-2-.65-2.09,1.4.52,1.16-.37,1.65-.65"/></g><g id="NC"><path class="cls-1" d="M361.5,179.2c-.53-1.73,2.66-6.29,5-6.37,2.61-.09,5.13-3.72,6.42-4.42a22.83,22.83,0,0,0,4.91-2.76,9.85,9.85,0,0,0,2.17-2.06c.26-.35.69-2.51,1-2.72,2.13-1.39,8.92-.73,11.63-1.16L409.48,157c6.07-1,17.59-6.31,20.77.63A25.78,25.78,0,0,0,428,156c.46.36.87.77,1.35,1.13-1-.26-2.16-.37-3.11-.62a5.76,5.76,0,0,1,1.62,1.19c-.63.18-.78,0-1.4,0l.64.57a5.59,5.59,0,0,0-1.7-.17l.8.4c-1.86,2-3.49.41-4.17-1.42.32,2.93,1.73,2.7,3.79,2.61,3.51-.15,2.82-.39,4.07,2.37a8.22,8.22,0,0,0,0-2.36s1.09-1,.9-.85c1.29.67,3.18,3.35.92,3.28.36,2.49-1.89,4.19-3.76,2.26l.05.65c-.9-.7-.93-.44-1.22-1.12l-.67.06c.19.34.4.81.55,1.18a8.94,8.94,0,0,1-4-.31c1.36.94,3.9,1.06,5.7,1.56-.36.38-.58,1-1,1.24l.66-.12c0,3-2.71,1.79-4.35.87,1.72,2.1,3.49,1.4,5.5,1.24,0-.89.2-.41.22-1.38a4.7,4.7,0,0,1,.36,1.2c.45-.3.73-.56,1.15-.84.4,1.27-.18,3.26-1.78,2.59l-.15.67-.47-.67c-.53.82-2,1.93-3.14,1.56-.43-.13-1.08,1.6-2.26,1.58l.38-.61-.73-.25c1.44,2.14-2.83,4.64-1.67,8.14-.37-.79-1-1.61-1.34-2.24,2.67,3.29-1.24,2.91-3.2,3.7s-4.88-2-6.57-3c-2.05-1.25-5.74-4.72-8.24-4.38-3.15.43-7,1.29-9.23.4-2.4-1-2.12-2.09-5.42-1.92-2.82.15-6.23,0-8.91.92-2.15.71-3.77,2.12-6,2.76-3.34,1-7.22,1-10.66,1.43"/></g><g id="VA"><path class="cls-1" d="M366.32,161c5.39-3.48,8.57-7.12,13-12.3.15,2.1,3.89,4.45,5.21,1.82.4-.8,4.28.68,4.4-2.15,5.83.24,5.31-7,7.39-11.7,2-4.51.77.16,4-1.75.55-.33.92-2.65,1-3.33.24-1.77,1.42-.54,2-2,.79-1.85,3.07-3.26,2.52-6-.33-1.63,3.71,1,4.11,1.2,1.2.65.58-3.18,2.89-1.56,1.48,1,1.34,2.24,3.8,2.79,2,.45,1.62,3.4.1,3.36-.69,5,.86,1.94,3.13,3.93s5.47.54,6.89,3.26l-.67-.13c.62,1.13.16,1.26.07,2.42-2.33-.79-5-4.4-7.46-4.3,2.54.53,9.43,6.07,9.08,7.53-.7-.55-1.11-.28-1.61-.47.36.82.12.7.27,1.41-1.26-.56-2.36-1.33-3.5-1.95,1.53,1.4,7.32,3,4.44,5a13.59,13.59,0,0,1-2.62-2.35c-1.18,0-.69.33-2-.47l-.07.74a3.65,3.65,0,0,0-3.36-.13c3.08-.44,7,.66,7.46,3.56.73-.09,1.13-.23,2-.27-.35-1.24-.05-1.05,1.11-1.09,2.16-.07,2.14,1.75,3.33,3.45-.18-.22-.92-.8-1.28-1.21.13.45.14.95.27,1.41.08,0-.94.13-.74-.2-1,1.91-13.34,3.25-16.13,3.81-6.28,1.27-12.61,2.36-18.91,3.52-10,1.84-20.08,2.3-30,4.17"/></g><g id="WV"><path class="cls-1" d="M372.64,137.89c3-.3,2.77-8.63,4.78-5.53.39-1.18,0-3.46,1.27-4.16.94-.5,0-.38.47-.87.77-.81,1.31-.06,1.68-.37,1-.86,2.72-2.49,3-3.79.45-2.27-.33-9.39.93-10.13l1.61,9.2,7.89-1.43.87,5.22c1.38-1.52,4.37-3.8,4.72-5.28,2.55,2.4,5.52-4.46,7.64.5s-2.47.11-4.16,1.18c.38-.24-2.19,5.7-2.27,5.87-.51,1.2-1.29.42-1.83,1.4s-.36,2.28-.84,3.23c-.58,1.16-1.89.29-2.45-.22-1.16-1-1.06,1.45-1.37,2.15-1.93,4.36-1.45,11-6.83,10.81a2.48,2.48,0,0,1-3.39,1.9c-1.56-.64-2.84,2.36-5.28-.62-2.24-2.74-6.4-4.39-6.43-9"/></g><g id="SC"><path class="cls-1" d="M387.25,175.47c1.43-.16,5.42,2.66,6.1,2.39,1.52-.6,1.15,1.54,2.71,1.29,2.24-.35,6.42-1.34,6.42-1.34s8.19,5.4,10.46,7c4.74,3.37-2.21,4.29-1.47,9.5-.63-1.32-.48-.62-.45-2.23-1.45,1.65,1.58,2.94-.7,3.12l.51.26c-.84,1.35-3.72,4.93-5.09,3.75,1.36,1.66-.08,3.29-2,3l.45.32c-1.27,1-2.5.87-4,1.4,1.8.27,1.23.32,1.65,1.21l.64-.64c-.5,1.85-1.54,1.87-2.1,0l-.06,1.34a18.68,18.68,0,0,1-1.46-1.72A5.85,5.85,0,0,0,400.6,207c.26,0-1,.83-.89.7V207c0,.62-.52,1.32-.57,2-2.09-.08-4.37-4.44-5.6-6-1.11-1.45-.58-3.23-2.86-3.91-1.35-.4-1.83-1.92-2.73-2.77-2.46-2.32-5.62-5.06-8.27-7.76,0,0-3-3.94-5.29-4.44,0,0-3.89-2.57,4.61-7.74Z"/></g><g id="PA"><path class="cls-1" d="M385.83,96.7a28.44,28.44,0,0,0,5-3.77c-.41,4.09,3.53,2.06,6.1,1.6,3.15-.56,6.28-1.21,9.42-1.85,4-.81,13.23-4.51,17.12-3.58,1.45.35,1.78,1.77,2.84,2.72a39.84,39.84,0,0,1,3.21,2.41c.66,1.7-3.13,5.45-2,7.85.51,1.06,1.84,1.59,2.66,2.41,2.17,2.16,1.43,1.38,0,3.52-1.19,1.78-4.34,2.1-4.85,3.83-.58,1.93-13.46,3.21-16.15,3.72q-9.73,1.85-19.48,3.64-2-11.25-3.9-22.5"/></g><g id="MD"><path class="cls-1" d="M395.7,120q14.15-2.69,28.21-5.69c.52-.11,4-1.18,4.11-.63l2.31,8c1.72,6,.65,6.39,7.05,4.92.27,3.15-1.52,6.31-5.76,7.27.31-.51.4-1.44.79-2-1,.3-.72-.17-1.73.22.18-.75,0-.74.5-1.51-.08-.3-.35-1.1-.5-1.66l-.65,1.51c-.13-.33-.22-.75-.36-1.08,0,.6-.24.82-.07,1.51a15,15,0,0,1-2.09-1.23l.22.72c-.7-1.29-.83-1.4-.36-3l-.79.43a10.35,10.35,0,0,1,2.59-1.37c-1.75.35-2.33-1.76-3.24,0-.29-1.77-.27-1.54,1.23-1.22a6.26,6.26,0,0,1,.14-1.37c-.38-.3-.77-.39-1.22-.79-.44.66-.78.63-1,1.44.09-1.81,1-1.66,1.3-3.31-.08.05-.45.57-.58.65a2.76,2.76,0,0,1,1.94-4.25l-1-.07a6.75,6.75,0,0,0,.79-1.8l-.72.58.14-.72c-1.87.76-.2,1.49-2,2.52l-.07-.72a2.37,2.37,0,0,0-.29,1.58l-.65-.79a11.37,11.37,0,0,1-.86,1.65l.72.65a6.48,6.48,0,0,0-1.73.07,5.3,5.3,0,0,1,2.38,2.3,8.35,8.35,0,0,0-1.23.07,36,36,0,0,1,2.45,7.77,5.13,5.13,0,0,1-2.88-3.46c0,3.37,4.6,3.32,4.32,6.26-1.52-.79-4.33-.77-4.9-2.45a3.84,3.84,0,0,0-.14,1.15c-1.19-1.5-2.3-2.7-3.17-.43-1.73-1.77.83-4.47,1-6.44.1-.89-2.19-.66-3-1s-1.57-.15-2.2-.54.12-1.21-.61-1.69c-.53-.35-2.11-.29-2.3-.5s-.74-1.8-.86-1.87c-.84-.51-1.06-1.34-2.81-1.37-2.44,0-3.57,3.87-6.19,1.66-.12,1.49-3.84,4.55-5.26,6l-1-6"/><path class="cls-1" d="M428,113.48a2.07,2.07,0,0,1,3-1.73c-4,5.23,7.66,10.09,5.26,13.68,1.77-.13.41-.15,1.65,1.15-4.3.87-5.7,2.56-6.8-2.05-.89-3.72-2-7.38-3.06-11.05"/></g><g id="NJ"><path class="cls-1" d="M430.33,114.13c.23-2.83,5.7-5.45,5.47-7.92-.08-.88-4.23-3.3-4.86-4.07-.3-.37-.37-4.82-.32-4.86,2.15-2.15.36-5.31,4.32-4,1.06.34,5.15,1,5.76,1.87s-.36,2.14-.25,2.92-1.33.81-1.33,1.76c0,2.82.78,1.19,1.3,2s1.36-.45,1.62.68c.21.92,0,1.86.11,2.77a13.93,13.93,0,0,1,.29,3.74,21.8,21.8,0,0,0-.43-2.88c-.38,1.32.49,3.3,0,4.54-.74,1.85-1.88,2.61-1.37,4.39-2.28.82-.78,4.65-3.46,5.69,1.36-4.45-6.25-2.07-6.84-6.62"/></g><g id="DE"><path class="cls-1" d="M433.5,140.55a3.57,3.57,0,0,1-.5,2.81c-2.55-3,1.43-7.53.07-9.22a4.86,4.86,0,0,1,3-2c-.2,2.23-.77,4.51-1.15,6.7l-.72-.5a15.85,15.85,0,0,0-.65,2.23"/></g><g id="VT"><path class="cls-1" d="M434.87,48.54c4.27-1.34,8.65-2.35,13-3.48.15,1,1,4.64.44,5.66-1.41,2.64-2.65,2.52-2,5.95.32,1.74-1.17,3.53-.74,5.24.53,2.13-.29,6.4,1.5,7.76-.93.19-6.42,2.06-6.17.35.27-1.87-.75-6.66-2.44-7.75l-.32.76c-.95-5.06-2-9.63-3.23-14.49"/></g><g id="MA"><path class="cls-1" d="M442.44,74.6c3.67-.77,7.33-1.58,11-2.43,2.6-.61,3.17-2.71,5.37-3.18,0,1.3,1.06,2.27,2.15,1.61-.71,1.33-2.14,2-1.73,3.58h-.65c1,1.46,2.7.52,4.06,2.51l-.6-.3c.63.84,1.8,2.85,3.4,2.57,3.19-.56,1-3.17-.6-3.7,1.78-.38,3.65,1.94,2.75,3.52-.41.73-3.38,1.92-4.24,2.45,0-.63-.37-1.19-.3-1.85-1.29,1-1.78,2.28-2.86,3.1a3.51,3.51,0,0,1-.72-2.69c-1,2-1-.21-2-.48-1.31-.34-.61-1.08-2.85-.41-.89.27-1.94.31-2.89.54-2.77.69-5.36,1.29-8.18,1.9-2.54.55-1.37-4.91-1.13-6.75"/></g><g id="CT"><path class="cls-1" d="M442.66,82.9c3.47-.75,6.68-1.49,10.1-2.35,2.83-.71,3.15,4.08,3,6.33-1.58,0-2.64,1.52-3.81.6.6,1.55-1.91,1.18-2.92,1.79-1.42.85-2.08,1.47-3.39,2.32-.66.43-1.2,2-2.05,1.16s.69-1.21.68-2.23c0-2.17-1.26-5.34-1.67-7.62"/></g><g id="NH"><path class="cls-1" d="M448.43,70.42c-1.16-.88-2-7.63-1.49-8.71,1-2.06.71-5.32.51-7.54-.08-.83,1.82-2,2.26-2.8.74-1.39-.48-1.79-.57-3.08-.18-2.42-.16-5.51,2.29-6.3,1.51,4.26,2.85,8.58,4.26,12.88.63,1.92,1.06,6.11,3,7a4.48,4.48,0,0,1,1.53,2.48c-.4,1.7-.85.8-1.72,2.16-1.92,3-6.6,3.1-10.08,3.91"/></g><g id="ME"><path class="cls-1" d="M453.14,41.12c1.63-.2,1.84-1.44,3-1.87-1.05-1.27-.72-2.37.24-3.56,1.15-1.42.82-2.58.76-4-.14-3.17-.43-7.15.61-10.24L460.56,13c.61-1.82,2.25,1.47,2.37,1.56,2,1.53,4.1-2.73,6.34-2.56,7.54.59,5.09,14.4,9.54,17.24.69.44,2.62-.43,2.3.72-.2.73.55,2.38.9,3,1.18,2.17,3.94-.38,4,4a2.56,2.56,0,0,0,.36-1c1.72,1.28-.08,3.57-1.95,3.17l.51.79c-1.13.43-1.45,1.18-2.3,2.16a11.84,11.84,0,0,1-1-.86,8.16,8.16,0,0,0-.36,2.38l-.22-.79-.07.79-.29-.72c0,.38-.35,1.19-.43,1.8-.83-1-1.3-.69-2.45-1.3-.14.36-.46,1-.58,1.37l-.65-.72a7,7,0,0,0,.43,3,17.37,17.37,0,0,1-2.59-.43c.21-.44.25-.88.43-1.3l-.72.14c0-.76.13-.79-.43-1.44a3.78,3.78,0,0,1-.86,1.87c.35.93.64,4.23.14,5-1,1.5-2.9.3-2.52,3A4.37,4.37,0,0,1,469.7,52a17,17,0,0,0,.14,2.38,10.29,10.29,0,0,1-1-1.8,9.94,9.94,0,0,0-.22,2.67,5.66,5.66,0,0,1-1-3.24,3.37,3.37,0,0,0-.43,1.44c.71.26,1.27,1.51,1.08,2.81a6,6,0,0,0-.79-1.58c-.16.51-.44,1-.58,1.51l-.07-.72-.07.72-.36-1.37c-1.12,1-1.75,2.35-.79,3.31-2,2.64-2,11.15-5.69,4-3.19-6.18-4.41-14.32-6.77-21"/></g><g id="RI"><path class="cls-1" d="M455.46,79c2.81-1.41,3.7-.38,5,1.73l-.36.36-.58-.79c.09,3.41,1.64,4.57-2.3,6.62.11-2.62-1-5.33-1.73-7.92"/></g><g id="NY"><path class="cls-1" d="M388.85,89.91A27.29,27.29,0,0,0,393.4,85,14.06,14.06,0,0,0,395,82.84c.23-1-1.2-2-.73-2.62.17-.23-2.35-1.4-1-3.11,1.11-1.43,4.9-2.14,6.51-2.31,3.72-.4,9.64,1.4,11.83-2.63,1-1.83,2.51-1.6,3.08-3.39s-1.52-2.44.21-4.34l-1,.49-.07-1.05c-.45.78-.55,0-.63,1.12-1.37-1.23,2.53-6.32,3.54-8,3.46-5.76,6.38-5.8,12.46-7.49,1.15-.32,5.16-2.4,4.71.06-.28,1.54,1.23,3.27,1.65,4.65.92,3.06,1,6.83,1.64,10.08l.35-.84c4.1,2.65,2.74,13.73,3.22,17.71.38,3.16,1.91,6.71,2,9.73,0,.46-1.11.88-1.19,1.47-.11.86.71.81,0,2.31a3.77,3.77,0,0,1-1.47,1.89A6.29,6.29,0,0,0,439,90.47c.33,1.13.88,2.1,1.26,3.36-1.85-.6-10.63-2.32-11.13-4.83-1.05-5.29-7.14-2.71-10.8-1.88-4.83,1.1-9.69,2.08-14.55,3-2.89.57-5.77,1.18-8.67,1.69-3.47.61-6,2.4-6.23-1.94"/><path class="cls-1" d="M445.2,96.42a42,42,0,0,1-4.06,2.17l.77-.56c-3.4,1.18-.64-2.79.84-2.87.49-1.87,2.87-.78,3.61-2.24.52-1,2.16-.64,3-1.12A11.31,11.31,0,0,0,453,88.57a7.55,7.55,0,0,1-2,3.36c1.5-.2,3.75-2.22,5.25-3-3,3.59-7,5.2-11.13,7.49"/></g><g id="AK"><path class="cls-1" d="M409.68,231.21a7.49,7.49,0,0,1,1.29-.09,1.65,1.65,0,0,0-2.1-1.24,15.3,15.3,0,0,0,.82,1.33"/><path class="cls-1" d="M411,233.92c0-.19.41-.34.43-.69-1.1.05-.38.33-.43.69"/><path class="cls-1" d="M420.72,240.58c.52-.34.89-.48,1.16-1a1.85,1.85,0,0,0-1.16,1"/><path class="cls-1" d="M424.46,241.48h0"/><path class="cls-1" d="M425.79,244.83c.36-.52-.5-1.33-1.33-2.06a17.68,17.68,0,0,1,1.33,2.06"/><path class="cls-1" d="M427.77,242.72l.52-.39-.43-.39c-.86.31,0,.37-.09.77"/><path class="cls-1" d="M432.32,244.74h0"/><path class="cls-1" d="M437.77,247.11l.52-.47v.47c.42-.07.85-.37,1.33-.43a6,6,0,0,0-.39-1.25,13.42,13.42,0,0,0-1.46,1.68"/><path class="cls-1" d="M439.79,246.89c.12-.28.4-.2.35-.64-.63.09-.2.3-.35.64"/><path class="cls-1" d="M440.48,246.8c.08-.26.61-.19.13-.39s0,.14-.13.39"/><path class="cls-1" d="M441,245.95c0-.33.46-.25.17-.73-.78.21-.13.33-.17.73"/><path class="cls-1" d="M445.76,246.16a11.17,11.17,0,0,0-2.11.17c.53.16,3.52.48,3.52-.11,0-1.2-.15-1.15-1.42-.07"/><path class="cls-1" d="M448.9,247.45a14.29,14.29,0,0,1,1.72,0,6.48,6.48,0,0,0-3.05-.64,12.75,12.75,0,0,0,1.33.64"/><path class="cls-1" d="M452.12,246.93c.13-.16.59-.27.77-.43-.88-.54-.5.1-.77.43"/><path class="cls-1" d="M457.66,246.42a.57.57,0,0,1,.64-.21l-.17-.47c-.64.11-.23.41-.47.69"/><path class="cls-1" d="M460.33,245.39l.86.26,0-.47a4.85,4.85,0,0,0-.9.21"/><path class="cls-1" d="M467.5,242.85c-1-.7-1.93-.23-1.93,1-1.09,0-1.62.87-2.15,1.76a10.54,10.54,0,0,0,4.08-2.75"/><path class="cls-1" d="M467.76,244.1c1.11-.31,2.44-.63,2.79-1.25.63,0,.82-.21,1.63-.43-.64-.13-.08-.33-.82-.13.31-.39.39-.75.95-1.07l-.3-.43c-.37.17-.36.27-.77.39-.74-1.11-2.4.32-.47.94l-.86,0c.08.44,0,.49-.39.73l.43.17c-1,.28-2.77.34-2.19,1.12"/><path class="cls-1" d="M472.35,242.29c0-.21.25-.37.26-.64-.71.13-.2.29-.26.64"/><path class="cls-1" d="M473.39,210.08a7.56,7.56,0,0,0,2.19,1.46l-.39-.47a6.12,6.12,0,0,0,1.76-.22c.12-3.62-2.41-2.06-4.42-1.68.15.63.55.67.86.9"/><path class="cls-1" d="M473.47,240.75l.69-.43c-1.05-.41-1.51-.41-.69.43"/><path class="cls-1" d="M474.46,240.45c0-.43.62-.47-.09-.9-.07.34.11.6.09.9"/><path class="cls-1" d="M475.27,240.88h0"/><path class="cls-1" d="M476.73,179.54h0"/><path class="cls-1" d="M476.65,238.08c0,1.73,3.93.31,4.47-.43a4.56,4.56,0,0,0,.86.47c-1.58-2.16-3.21-2.61-5.33,0"/><path class="cls-1" d="M478.37,178.63a2.53,2.53,0,0,0-.9.43l.9-.43"/><path class="cls-1" d="M481.42,177.26a8.45,8.45,0,0,0-1.33.43c.44-.14.89-.3,1.33-.43"/><path class="cls-1" d="M483,239c0-.06-.15.38.39.64.22-.61-.23-.33-.39-.64"/><path class="cls-1" d="M484.6,236.67c-.23.21-.52-.13-.52.47.58.08.27-.24.52-.47"/><path class="cls-1" d="M485.8,192.55c-.11,0-.12-.33-.47-.26-.07.67.17.18.47.26"/><path class="cls-1" d="M486.06,235.77h0"/><path class="cls-1" d="M488.16,217.9c.33,0,.65.6.9-.64-.41.14-.56.41-.9.64"/><path class="cls-1" d="M489.11,234.56c-.35.45-.68.67-.34,1.42.8-.68.69-.38.77-1.37-.62.71-.31,0-.43,0"/><path class="cls-1" d="M490.14,234.82c.19-.27-.47.35-.43.3.58.32.26,0,.43-.3"/><path class="cls-1" d="M491.13,236.28c.09-.39.29-.61.26-1a3.21,3.21,0,0,0-.86,1.89l.6-.86"/><path class="cls-1" d="M492.5,235.38a2.19,2.19,0,0,0,0,.9v-.9"/><path class="cls-1" d="M492.89,236.28h0"/><path class="cls-1" d="M494.52,232h0"/><path class="cls-1" d="M498.81,228.38h0"/><path class="cls-1" d="M503.75,231.51c-.12.27-.34.34-.39.69.56-.16.24-.35.39-.69"/><path class="cls-1" d="M509.3,224.68a1,1,0,0,1,.86-.43l-.39-.43c1.16.16,2-.1.69-.86a1.65,1.65,0,0,0,1.89-.86c-.9-.82-.87-2.18-1.93-.69-.56-1-.47-.44-1.16-1a9.65,9.65,0,0,1,.26,1.33l-.43-.39.13.47c-.77.09,0-.22-.56.26-.6-1.26-1.36-.88-.52,0-.21.53-.3.33.17.69l-.43-.17c.13.46.27.93.39,1.37-.6-.78-1.67-2.85-2.58-.73-.43,1,.65,2.29,1.2,3.14a2.33,2.33,0,0,0,.47-1.33c-.45,0-.53.18-.9.39.92-.63.33-.31.9,0,.28-.19.54-.47.82-.65l-.39.86.43,0c-.33.43-.56.91-.86,1.33.9-.28,1.61-.93,1.12-1.68.33-.27.58-.38.82-.6"/><path class="cls-1" d="M506.68,227.82c-.28.27-.73.09-.6.77.38-.21.35-.52.6-.77"/><path class="cls-1" d="M507.62,227.69c-.29.21-.64-.14-.6.52.59,0,.31-.3.6-.52"/><path class="cls-1" d="M508.69,220.56c.15.18,0,.61.73.69-.19-.36-.51-.41-.73-.69"/><path class="cls-1" d="M509.12,219.66c.32.46.61.84.69.39.56-.28.7,0,1.16-.95l0,.43a1.44,1.44,0,0,0,1.42-1.25l-.34.47c-.45-.65-1.9-1.58-1.68.13-.3,0-.61-.11-.9,0l.43.34a2.48,2.48,0,0,0-.82.38"/><path class="cls-1" d="M510.63,224.64c-1.55.08-1.37.9,0,0"/><path class="cls-1" d="M511.31,217.08c-.11.07-.54-.13-.65.56.5,0,.34-.36.65-.56"/><path class="cls-1" d="M511.36,207.33h0"/><path class="cls-1" d="M520.34,204.54h0"/><path class="cls-1" d="M520.42,203.63c0,.18-.1.46,0,.69.73-.25.13-.29,0-.69"/><path class="cls-1" d="M521.11,207.37c-.15.34-.5.36-.3.9.26-.32.16-.58.3-.9"/><path class="cls-1" d="M521.15,208.32c-.57.78,0,0,0,0"/><path class="cls-1" d="M521.07,206.38h0"/><path class="cls-1" d="M521,208.36a2.72,2.72,0,0,1,.56-.64c-.52.09-.35.32-.56.64"/><path class="cls-1" d="M521.37,208.27h0"/><path class="cls-1" d="M521.88,206c-.22.17-.56.57-.09,1.33a9,9,0,0,1,.09-1.33"/><path class="cls-1" d="M522.1,208.14a2.15,2.15,0,0,0-.13,1.16c.87-.91,1.64-2.18,1.2-3.35a3.63,3.63,0,0,1-1.07,2.19"/><path class="cls-1" d="M525.66,205.4c-.66-.06-1.14-.34-1.37.52l.43-.13-.34.43a5.2,5.2,0,0,0,1.29-.82"/><path class="cls-1" d="M526.26,204.32c-.36.22-.72.14-.9.73l.9-.73"/><path class="cls-1" d="M528.11,204.79c0,.34,0,.66,0,0"/><path class="cls-1" d="M530.6,206.34c-.18.33-.41.38-.39.82,0,0,.6-1.21.39-.82"/><path class="cls-1" d="M552.94,209.73c.13.4-.14.79.47,1.12.21-.73-.26-.69-.47-1.12"/><path class="cls-1" d="M555.86,212.23c0-.77.29.79.34.21a1.65,1.65,0,0,0-.77-1.68c.82.22,2.62,1.16,2.58,0s-2.26-.54-3.18-1a12,12,0,0,0,2.23,0l-.43-.43c.88-1-1.12-1.4-1.42,0l-.43-.09c.86-1.68-.88-1-1.16-.13l-.47-.3c.42.89,0,.68.94,1.38-1.43.28,1.11,1.47,1.76,1.93"/><path class="cls-1" d="M556.25,212.7a1.55,1.55,0,0,0,.6,1.5c.33-.84-.18-1-.6-1.5"/><path class="cls-1" d="M558.78,210.64c.66-.44.66,1,.77,2.19.81-.54,1.06-1.26.47-2,.58-.09.26,0,.77-.3-.58-1-2-1.65-2.49-2.92.69.52,1.38,1.1,2,1.68-.27-.42-1.54-2.21-2-2a1.41,1.41,0,0,1-1.93-.37,12.41,12.41,0,0,0,2.36,3.7"/><path class="cls-1" d="M559.17,215.53c.17-.53.66,1,1.76,1.29-.26-1.65-2.22-6.15-4.12-5l.17-.43-.47-.09c-.26,1.18-.18,1.46.77,1.37.39.58.13.5.77.82a2.26,2.26,0,0,0,.65,1.72l.26-.43c-.06.35.08.49.22.77"/><path class="cls-1" d="M558.35,211.41h0"/><path class="cls-1" d="M559,208.45h0"/><path class="cls-1" d="M562.78,217.29a1.49,1.49,0,0,1-.26-1.2l.3.43c-.16-1.06,0-2.67-.9-3.31a1.09,1.09,0,0,1,.09.86c-.47-.85-.48-.59-1.25-1.07l.43.26-.47,0c.24,1-.05.74.86,1,.19.56-.09.33.65.95-.66.67-.28,1.45.56,2.1"/><path class="cls-1" d="M563.42,214.67c1.16-.63,1.12-1.4-.17-2.06.4.24.95.37,1.38.6-.21-1-.72-1.94-1.37-1.2a2.68,2.68,0,0,0-2.19.17,9.55,9.55,0,0,1,2.36,2.49"/><path class="cls-1" d="M563,217.77l-.6.17c.5.49.32,0,.6-.17"/><path class="cls-1" d="M564.62,215.79c-.51.52-.94.73-.69,1.55.3-.59.75-1,.9-1.42,1,1,.32,2.89,1.59,2a11.56,11.56,0,0,1,.94,1c-.29.14-.62.13-.9.26.56.43.21.37,1,.17l-.22.43c.53-.55.49-.21.95-.6.39.73.6.52.69,1.25,1.2.44,2.77,1.23,1.59-1l-.3.47c0-.41-.15-.85-.09-1.33-.63-.18-1.53-.77-2.15-.43.34-.18.13-.46.9-.52-1.57-1.05-3.71-3.13-5.37-2.49.24.65.57.56,1.12.68"/><path class="cls-1" d="M563.72,217.34c0,.2,0,.67,0,0"/><path class="cls-1" d="M564.71,212.14c-.47,1.65,1.84,1.39,0,0"/><path class="cls-1" d="M565.4,217.34c-.46.38-.73,0-.82.64l.43.13c-.13-.45.08-.51.39-.77"/><path class="cls-1" d="M565.18,219.4h0"/><path class="cls-1" d="M565.61,213.6c-.92,1.4.58,1.37,0,0"/><path class="cls-1" d="M565.48,217c-.1.23-.66-.17-.13.26s0,0,.13-.26"/><path class="cls-1" d="M565.48,218.88h0"/><path class="cls-1" d="M565.78,219.4c-.11.31-.54.34,0,.86-.25-.37-.08-.5,0-.86"/><path class="cls-1" d="M566,218.58h0"/><path class="cls-1" d="M566.34,219.53c0,.35-.5.3-.09.77.82-.3.09-.35.09-.77"/><path class="cls-1" d="M566.69,213.81c-1,1.12.22,2,1.5,1.55a3.91,3.91,0,0,0-1.5-1.55"/><path class="cls-1" d="M566.51,213.09a1.85,1.85,0,0,0,1.5,1.37c0-1-.59-1.14-1.5-1.37"/><path class="cls-1" d="M567,219.7a2.09,2.09,0,0,0,2.19,2.1,18.54,18.54,0,0,1-2.19-2.1"/><path class="cls-1" d="M567.93,219.66c.11.18,0,.54.17.77l.43-.09c-.1-.45-.42-.38-.6-.69"/><path class="cls-1" d="M569,220.82h0"/><path class="cls-1" d="M570.85,217.6c.21-.38.33-.56-.13-.86l.43.34c.06-.59,0-.36-.17-.9.26.68.31.52.3,1.29h.47l-.13-.43c.29.3.2.53.69.6.2-1.43-1.69-4.87-2.66-2.36h.47l-.39.47.43-.13a1.46,1.46,0,0,0,.69,2"/><path class="cls-1" d="M570.08,217.42c.3.43.16.8.77,1,0-.74-.41-.62-.77-1"/><path class="cls-1" d="M571.37,217.85c.06.15-.23.65.73.69-.16-.48-.49-.38-.73-.69"/><path class="cls-1" d="M572.53,218.71c0,.21-.25.36-.22.65.74-.14.19-.28.22-.65"/><path class="cls-1" d="M474.29,180.87h0"/><path class="cls-1" d="M474.29,180.87c1.43-.47,3.54-2.46,5.2-1.68-.55-1.59,2.77-2.62,4.21-2.06l-.43,0a2.11,2.11,0,0,1-.69,1.93c1.22,1.1,3.21.66,4.55,1.29.3-1,.94-1.75,1.68-.77.19-1-.7-1.77-1.59-.9.28-1.26-.69-2.11-1.37-3-.35,0,5.29,4.61,4.77,2-.28-1.42-2.42.17-3-.56-1.07-1.43.31-1.79-1.37-2.75-1.52,2.87-2.8-2.14-3.42-2.64-1.56-1.28-2.68-2.93-4.4-3.93,1.12-.57.57-1.86,1.38-2.43s2.78.23,3.91-.45c2.32-1.39,1.92-5.09,4.3-6.31-.14.21-.36.25-.47.43,1.45-.15,2.39-1.21,3.56-1.93a6.12,6.12,0,0,1-.17,1.2c.1.07.35,0,.39.39a4.94,4.94,0,0,1,.95-1.29c-1.53-.1-1.27-1.21.13-1.76a3.12,3.12,0,0,0,0,.86c2.12-1,2.93-2,4.64-3.65,0,.79.94,1.11,1.42,1.59-.5-.5-.57,3.2.56-.17l.47.34v-.43c.9,2.09,2.53.5,4.51.77,0,.6.32.88.34,1.29l-.47.13a4.38,4.38,0,0,0,1.29,0l-.17.43c1.46.51,2.21-.49,3.48-.64a11.23,11.23,0,0,1,3.27.39c1.91.29,5.45,1,7.22.13.6-1.18,1.78-.58,3-.34,2.78.56,2.91,1.24,3.82,4.29,2.16,7.26,4.29,14.54,6.43,21.81l4.15,14.06c.35,1.2.81,5.52,2.05,6.27a3.32,3.32,0,0,0,2.73-.73c1.26-2.13,1.36.19,1.78.43,2,1.13,5.19,2,6.23,4.21.33-.87,1.31-1.42,1.63-2.19.25-.59-.32-1.85,0-2.36,1.11-1.78,2.46-1.36,3.44.11.76,1.14,3.35,1.42,4.55,2.32,1.72,1.29,3.42,2.9,5.37,4.17a16.6,16.6,0,0,1,3.16,2.81c.69.76,3.22.24,4.4.56,2.08.56,4.65,4.33,2.79,7l-.6-.86.3.86c-1.4-.43-.76-1.55-.3-2.75-.11,1.72-1.82,1.9-.73.43-.78-.6-2.41-2.44-2.45-3.35-.78,1.21-1.91,1.67-1.16,3.22l-.43-.13.43.43c-1.55.27-1.64-2.66-.6-3.26a3,3,0,0,1-2.66-1.33l-.47.34a5,5,0,0,1-.09-.9c-1.07.11-1.16.09-1.59-1a4.09,4.09,0,0,1-2.1.39,4.72,4.72,0,0,1,.86-1.16l-.9.21c-.25-.27-.77-.87-1.2-1.42a9.64,9.64,0,0,1,1.72.26,4.15,4.15,0,0,1-1.93-1.33l.9-.21c-1,.73-1.7.74-1.68-.77a2.74,2.74,0,0,0-.17.9,1.85,1.85,0,0,1-.82-2.58c-.58,4.11-4.95-.65-5.58-3,.22,1.12-.17.77.73,1.63l-.47-.3c.65,1.37,3.14,3.46,2.19,4.47.55-.58-2.17-.41-1.89-.3a2.13,2.13,0,0,1-.6-2.32l-.9,0c.43,1.69-1.21.57-2.23.43,0,0,0,.82,0,.86,1-.38,1.8-.19,1.93.6,1.29-.21,2.1,1.58.22,1,.16.52,0,.77,0,1.2a14.05,14.05,0,0,0-3.09-1l.39-.43c-1,.22-2.86-1.19-3.35-1.68-1.28.3-2.73-.27-4-.65.69-.59.62-1.34,0-2.1.58.29.8.21,1.2,1.16.15-1.28-.31-.29.56-1.07-2.48-1.34-2.63,2.36-6.06,1.55.08-.7-.17-.58-.3-1.16-.15.58-5.25,2.27-6.38,2.17-1.5-.14-3.21-1.35-2.26-3.16-.72,1.24-1.05,2.63-2.62,1.93-.06-.34.1-.55.17-.86a2.87,2.87,0,0,0-1.33.21l.26-.9c-.41.29-1,.53-1.33.82a6.91,6.91,0,0,1,1.16-1l-.47-.17c-1.12.42-1.74-.52-.22-1-1,.05-1.65.84-2.36,1.33l-.43-.39,0,.43-.22-.9c0,.4-.07.9,0,1.33l-.26-.43c-.92.5-.83-.72-.34-1.68a9.62,9.62,0,0,1-.52,1.33c-.9,0-.32,0-.94.47l.34-.43c-.09,1,.13.71-.82,1.55l.43-.17-.26.43c.72-.24.12-.09.65.17l.26-.43c-.23.76.23.65-.64,1.38,1.42-.75,2.08-.21.82,1.16,1.72.82-1.6,1.93-1.85,2.1l-.43-.86a7.16,7.16,0,0,0-.21,1.8,1.94,1.94,0,0,1-.43-.86,7.41,7.41,0,0,0,0,1.33,2.33,2.33,0,0,0-.73-.51c0,.89-.14.69-.43,1.54,0-.23,0-.7-.09-.9-.52.69-.43.46-.82.73,0,.66-.39,1.06-.56,1.72l-.86-.21.34.43c-2.08,1-3-1.17-.82-1a13.41,13.41,0,0,1,.64-1.68c-2.72,2.59-1.43-1.94-1.12-3.09.36-1.33-.6-2.78,1.59-3.57a16.11,16.11,0,0,1,3.44.26c-1.77-.65-3.51-1.37-1-3-1.37.17-1.66,2.48-2.88,1-.61,1.1-1.91,2.51-2.45,3.44-.73,1.26-1.43,3.45-3,2.75,1.64.58,1.53,2.14-.22,2.32.67.85.4.23-.13,1.2l-.09-.47c-.92.74-2.1,2.21-1.85,3.57,4-1.24.93,3.14,0,4l.43-.17a2.19,2.19,0,0,1-.9,1.54c-1.6,0-1.33,1.76-2.71,1.46a3,3,0,0,1-1,1.8c-.68.06-.65.21-1.29.69,1.52,1-1.6,2.45-2.49,2.58a1.23,1.23,0,0,1-1.46,1.29c.29.39.17.31.34.69a1.7,1.7,0,0,0-2,.86,2.71,2.71,0,0,1,.86,0c0,.55-.47.23.17.56-.14.24-.54.77-.73,1.07a4.93,4.93,0,0,1,0-.9c-1.09,1.41-2.66,1.4-3.39,3.09.85-2.68-1.73-.33-2.32.47-.45-.49-.12-.21-.69-.39l.22.43c-1,.33-3,.79-1.68-.34-1.11-1.16-3.63,4.8-3.78,1.07l-.43.21a5.12,5.12,0,0,1,.3,1.33c-.82-.07-1.09,0-1.76-.69.1.48.18.34.39.77-.22.26-.69.48-.86.73-.16-1.91,4.71-6.06,7-5.63.1.75.4.54.73,1.12.45-.22.06-.53,1.25-.17-1.92-2.1,2.53-5.51,4.21-5.15a6.33,6.33,0,0,1,2.92-4.08c.81.62,0,.11.82,0l-.47.39c-.56-1.13-.8-3.79,1-3.52-2.52-.44.5-3.27.52-4.73-.31,1-2.55,2.84-3.57,2.49s-.7-3,.65-1.46a15.66,15.66,0,0,0-1.46-1.33,1.4,1.4,0,0,1-.64,1.07c-.12.46.26,2.75,0,2.84-.88.31-1.87-2-2.15-2.62-.27.31-.65.39-.9.65-1.22-2.94-3.76,1.61-5.5.82a3.2,3.2,0,0,0,1-2.15c-2-1.07.05-1.2-.13-2.45-.13-.92-.95-1.8-1.12-2.66-.27-1.34-.46-2.46.95-3.35l-.73-.21a6.12,6.12,0,0,1-2,4.12c-2.55,1.5-3.48-.46-4.25-2.32a3.94,3.94,0,0,1-1.76-1.12,19,19,0,0,1,1.85-1.89c.69.36,1.23.94.52,1.8a14.25,14.25,0,0,1,1.24-1c.67,1.45,1.58.77.43-.3l.43-.13-.26-.43c-1,.88-2.64.11-3.39-.47a6.94,6.94,0,0,0,.86-.43l-.86-.13.17-.43-.43.13a4.59,4.59,0,0,1,1.42-2.28,13.6,13.6,0,0,0-2.06,2.66,1.93,1.93,0,0,1-.43-2.1,1.35,1.35,0,0,0-.86-.17,4.86,4.86,0,0,1,0-.9,5.72,5.72,0,0,0,.9.09,4.49,4.49,0,0,1-.64-.73c1.38-.24,1.87-4.69,3.82-3-.65-.88-.35-.47.34-1.5-.76.33-.25,0-.9,0,0-.84.39-1.41,1.37-1.29-1-1.68,2.19-1.56,1.2.17a5.76,5.76,0,0,0,3.41-2.23c.88-1,2.83,1,3.57-1.5.45-1.52-1.3-3.1-1.22-4,0-.26,1.69-.69.86-2.06-1.28.81-3,1-3.87,2.84a2.5,2.5,0,0,0-1.29-1.25,2.39,2.39,0,0,1,.43.9c-1.4-1.54-4-.4-5.93-1-1.46-.49-1.45-2.39-2-3.69.39.75,1.08.43,1.89.17a6.84,6.84,0,0,0-1.76-.95l.52.3c-1.14-.29-2.67-1.11-2.71-2.11"/><path class="cls-1" d="M478.63,167.59h0"/><path class="cls-1" d="M479.91,197.84h0"/><path class="cls-1" d="M480,197.88h0"/><path class="cls-1" d="M499.29,215.62h0"/><path class="cls-1" d="M509.12,219.66c.26.21.64.31.9.56-.67.14-.59-.31-.9-.56"/><path class="cls-1" d="M509.38,219.74c.16-.35.06-.59.56-.47l-.43-.34a1.64,1.64,0,0,1,.9,0c-.22-1.71,1.23-.78,1.68-.13l.34-.47a1.44,1.44,0,0,1-1.42,1.25l0-.43c-.13.5-.44.68-.65,1.16a3.31,3.31,0,0,1-.95-.51"/><path class="cls-1" d="M509.38,219.74h0"/><path class="cls-1" d="M557.28,206.68h0"/><path class="cls-1" d="M557.28,206.68c.26.15.66.17.95.34-1.1.42-.75-.19-.95-.34"/><path class="cls-1" d="M564.62,215.79h0"/><path class="cls-1" d="M564.62,215.79a1.48,1.48,0,0,1-.69,1.55c-.25-.82.18-1,.69-1.55"/><path class="cls-1" d="M574.72,219c.19-.33,0,0,0,0"/><path class="cls-1" d="M574.76,218.84h0"/><path class="cls-1" d="M479.91,197.84h0"/><path class="cls-1" d="M480,197.88h0"/><path class="cls-1" d="M499.29,215.62h0"/><path class="cls-1" d="M409.68,231.21a15.3,15.3,0,0,1-.82-1.33,1.65,1.65,0,0,1,2.1,1.24,7.7,7.7,0,0,0-1.29.09"/><path class="cls-1" d="M411,233.92c.05-.36-.67-.64.43-.69,0,.35-.4.5-.43.69"/><path class="cls-1" d="M420.72,240.58a1.85,1.85,0,0,1,1.16-1c-.27.55-.63.69-1.16,1"/><path class="cls-1" d="M424.46,241.48c0-.73,0-.11,0,0"/><path class="cls-1" d="M425.79,244.83a17.68,17.68,0,0,0-1.33-2.06c.83.73,1.7,1.54,1.33,2.06"/><path class="cls-1" d="M427.77,242.72c.05-.4-.77-.46.08-.77l.43.39-.51.39"/><path class="cls-1" d="M432.32,244.74c.17-.67,0-.17,0,0"/><path class="cls-1" d="M436,246c.61-.3,1.25-.41,1.8-.64-.35,1-1,1.12-1.8.64"/><path class="cls-1" d="M437.77,247.11a13.43,13.43,0,0,1,1.46-1.68,6,6,0,0,1,.39,1.25c-.48.06-.91.36-1.33.43v-.47l-.52.47"/><path class="cls-1" d="M439.79,246.89c.14-.34-.29-.56.35-.64.06.44-.23.36-.35.64"/><path class="cls-1" d="M440.48,246.8c.08-.25-.36-.58.13-.39s0,.12-.13.39"/><path class="cls-1" d="M441,245.95c0-.4-.61-.52.17-.73.29.48-.14.4-.17.73"/><path class="cls-1" d="M445.76,246.16c1.27-1.08,1.42-1.13,1.42.06,0,.59-3,.27-3.52.11a11.18,11.18,0,0,1,2.11-.17"/><path class="cls-1" d="M448.9,247.45a12.45,12.45,0,0,1-1.33-.64,6.48,6.48,0,0,1,3.05.64,14.08,14.08,0,0,0-1.72,0"/><path class="cls-1" d="M452.12,246.93c.27-.33-.11-1,.77-.43-.18.16-.64.27-.77.43"/><path class="cls-1" d="M457.66,246.42c.25-.28-.17-.58.47-.69l.17.47a.57.57,0,0,0-.64.22"/><path class="cls-1" d="M460.33,245.39a4.85,4.85,0,0,1,.9-.21l0,.47-.86-.26"/><path class="cls-1" d="M467.5,242.85a10.54,10.54,0,0,1-4.08,2.75c.52-.89,1.06-1.78,2.15-1.76,0-1.21.95-1.68,1.93-1"/><path class="cls-1" d="M467.76,244.1c-.58-.77,1.16-.84,2.19-1.12l-.43-.17c.36-.23.47-.29.39-.73l.86,0c-1.92-.62-.27-2.06.47-.94.41-.11.4-.22.77-.39l.3.43c-.56.32-.63.68-.95,1.07.73-.2.17,0,.82.13-.81.22-1,.46-1.63.43-.35.61-1.68.93-2.79,1.25"/><path class="cls-1" d="M472.35,242.29c.05-.36-.45-.52.26-.64,0,.27-.23.43-.26.64"/><path class="cls-1" d="M473.39,210.08c-.31-.24-.71-.28-.86-.9,2-.39,4.55-1.95,4.42,1.68a6.12,6.12,0,0,1-1.76.22l.39.47a7.56,7.56,0,0,1-2.19-1.46"/><path class="cls-1" d="M473.47,240.75c-.82-.84-.37-.85.69-.43l-.69.43"/><path class="cls-1" d="M474.46,240.45c0-.3-.16-.56-.09-.9.7.44.12.48.09.9"/><path class="cls-1" d="M475.27,240.88h0"/><path class="cls-1" d="M476.65,238.08c2.11-2.57,3.75-2.11,5.33,0a4.48,4.48,0,0,1-.86-.47c-.54.74-4.42,2.16-4.47.43"/><path class="cls-1" d="M483,239c.16.32.6,0,.39.64-.54-.27-.42-.71-.39-.64"/><path class="cls-1" d="M484.6,236.67c-.25.23.06.56-.52.47,0-.61.29-.26.52-.47"/><path class="cls-1" d="M485.8,192.55c-.31-.08-.55.41-.47-.26.35-.07.36.23.47.26"/><path class="cls-1" d="M486.06,235.77c-.16.71,0,.09,0,0"/><path class="cls-1" d="M488.16,217.9c.34-.23.49-.5.9-.64-.25,1.25-.57.62-.9.64"/><path class="cls-1" d="M489.11,234.56c.12,0-.19.75.43,0-.08,1,0,.69-.77,1.38-.33-.75,0-1,.34-1.42"/><path class="cls-1" d="M490.14,234.82c-.17.25.15.63-.43.3,0,0,.61-.57.43-.3"/><path class="cls-1" d="M491.13,236.28l-.6.86a3.22,3.22,0,0,1,.86-1.89c0,.42-.16.64-.26,1"/><path class="cls-1" d="M492.5,235.38v.9a2.19,2.19,0,0,1,0-.9"/><path class="cls-1" d="M492.89,236.28h0"/><path class="cls-1" d="M494.52,232h0"/><path class="cls-1" d="M498.81,228.38c.79.21,0,0,0,0"/><path class="cls-1" d="M503.75,231.51c-.15.33.17.53-.39.69,0-.34.27-.42.39-.69"/><path class="cls-1" d="M506.68,227.82c-.25.25-.22.56-.6.77-.13-.68.32-.5.6-.77"/><path class="cls-1" d="M507.62,227.69c-.29.21,0,.56-.6.52,0-.65.31-.3.6-.52"/><path class="cls-1" d="M508.69,220.56c.22.28.54.32.73.69-.73-.08-.58-.5-.73-.69"/><path class="cls-1" d="M509.3,224.68c-.23.22-.49.33-.82.6.49.74-.22,1.4-1.12,1.68.3-.42.53-.91.86-1.33l-.43,0,.39-.86c-.27.17-.54.45-.82.65-.57-.31,0-.63-.9,0,.37-.21.45-.38.9-.39a2.32,2.32,0,0,1-.47,1.33c-.56-.84-1.64-2.13-1.2-3.14.91-2.12,2-.05,2.58.73-.12-.44-.26-.92-.39-1.37l.43.17c-.47-.36-.38-.16-.17-.69-.85-.92-.08-1.3.52,0,.52-.47-.21-.17.56-.26l-.13-.47.43.39a9.65,9.65,0,0,0-.26-1.33c.69.59.6.07,1.16,1,1.06-1.49,1-.13,1.93.69a1.65,1.65,0,0,1-1.89.86c1.27.76.47,1-.69.86l.39.43a1,1,0,0,0-.86.43"/><path class="cls-1" d="M510.63,224.64c-1.37.9-1.55.08,0,0"/><path class="cls-1" d="M511.31,217.08c-.31.2-.14.51-.65.56.11-.69.53-.49.65-.56"/><path class="cls-1" d="M511.36,207.33h0"/><path class="cls-1" d="M521.88,206a9.16,9.16,0,0,0-.09,1.33c-.47-.76-.13-1.16.09-1.33"/><path class="cls-1" d="M522.1,208.14a3.62,3.62,0,0,0,1.07-2.19c.43,1.17-.34,2.44-1.2,3.35a2.15,2.15,0,0,1,.13-1.16"/><path class="cls-1" d="M525.66,205.4a5.17,5.17,0,0,1-1.29.82l.34-.43-.43.13c.24-.86.72-.58,1.37-.51"/><path class="cls-1" d="M552.94,209.73c.21.42.69.39.47,1.12-.61-.33-.34-.72-.47-1.12"/><path class="cls-1" d="M555.86,212.23c-.65-.47-3.19-1.66-1.76-1.93-1-.69-.53-.48-.94-1.37l.47.3c.28-.9,2-1.55,1.16.13l.43.09c.3-1.45,2.29-1.06,1.42,0l.43.43a12,12,0,0,1-2.23,0c.91.44,2.59-.05,2.92.54,1,1.74-1.36.71-2.32.45a1.65,1.65,0,0,1,.77,1.68c-.06.58-.34-1-.35-.22"/><path class="cls-1" d="M556.25,212.7c.42.5.93.67.6,1.5a1.55,1.55,0,0,1-.6-1.5"/><path class="cls-1" d="M558.35,211.41h0"/><path class="cls-1" d="M558.78,210.64a12.38,12.38,0,0,1-2.36-3.69,1.41,1.41,0,0,0,1.93.37c.44-.22,1.7,1.58,2,2-.64-.58-1.33-1.15-2-1.68.47,1.27,1.92,1.87,2.49,2.92-.51.3-.19.21-.77.3.59.72.34,1.43-.47,2-.11-1.24-.12-2.63-.77-2.19"/><path class="cls-1" d="M559,208.45h0"/><path class="cls-1" d="M559.17,215.53c-.14-.29-.28-.42-.22-.77l-.26.43a2.26,2.26,0,0,1-.65-1.72c-.64-.32-.38-.24-.77-.82-1,.08-1-.19-.77-1.37l.47.09-.17.43c1.9-1.12,3.87,3.38,4.12,5-1.1-.29-1.6-1.82-1.76-1.29"/><path class="cls-1" d="M562.78,217.29c-.84-.65-1.21-1.43-.56-2.1-.74-.61-.45-.38-.65-.95-.91-.29-.62,0-.86-1l.47,0-.43-.26c.77.48.78.23,1.25,1.07a1.09,1.09,0,0,0-.09-.86c.92.64.74,2.24.9,3.31l-.3-.43a1.5,1.5,0,0,0,.26,1.2"/><path class="cls-1" d="M563,217.77c-.28.21-.1.66-.6.17l.6-.17"/><path class="cls-1" d="M563.42,214.67a9.55,9.55,0,0,0-2.36-2.49,2.69,2.69,0,0,1,2.19-.17c.66-.74,1.17.15,1.38,1.2-.43-.24-1-.36-1.37-.6,1.29.66,1.33,1.44.17,2.06"/><path class="cls-1" d="M563.72,217.34c0,.67,0,.2,0,0"/><path class="cls-1" d="M564.62,215.79c-.55-.12-.88,0-1.12-.69,1.66-.64,3.8,1.44,5.37,2.49-.77.05-.57.34-.9.52.61-.34,1.52.25,2.15.43-.06.48.11.92.09,1.33l.3-.47c1.18,2.26-.39,1.47-1.59,1-.09-.72-.3-.52-.69-1.25-.45.4-.41.05-.95.6l.22-.43c-.82.2-.47.26-1-.17.28-.12.61-.12.9-.26a11.57,11.57,0,0,0-.94-1c-1.28.92-.66-1.46-1.8-2.1"/><path class="cls-1" d="M565.18,219.4h0"/><path class="cls-1" d="M565.4,217.34c-.3.27-.52.33-.39.77l-.43-.13c.09-.65.36-.26.82-.64"/><path class="cls-1" d="M565.48,218.88c.15.7,0,.17,0,0"/><path class="cls-1" d="M565.48,217c-.09.21.37.66-.13.26s0,0,.13-.26"/><path class="cls-1" d="M565.61,213.6c.58,1.37-.92,1.4,0,0"/><path class="cls-1" d="M565.78,219.4c-.13.36-.29.49,0,.86-.49-.52-.07-.55,0-.86"/><path class="cls-1" d="M566,218.58h0"/><path class="cls-1" d="M566.34,219.53c0,.43.73.48-.09.77-.41-.47.09-.42.09-.77"/><path class="cls-1" d="M566.51,213.09c.92.23,1.5.41,1.5,1.37a1.85,1.85,0,0,1-1.5-1.37"/><path class="cls-1" d="M566.69,213.81a3.91,3.91,0,0,1,1.5,1.55c-1.28.44-2.5-.43-1.5-1.55"/><path class="cls-1" d="M567,219.7a18.47,18.47,0,0,0,2.19,2.1,2.09,2.09,0,0,1-2.19-2.1"/><path class="cls-1" d="M567.93,219.66c.18.31.51.24.6.69l-.43.09c-.13-.23-.06-.59-.17-.77"/><path class="cls-1" d="M569,220.82h0"/><path class="cls-1" d="M570.08,217.42c.37.41.82.29.77,1-.61-.23-.47-.6-.77-1"/><path class="cls-1" d="M570.85,217.6a1.47,1.47,0,0,1-.69-2l-.43.13.39-.47h-.47c1-2.51,2.86.93,2.66,2.36-.49-.07-.4-.3-.69-.6l.13.43h-.47c0-.77,0-.6-.3-1.29.18.54.23.32.17.9l-.43-.34c.46.3.34.48.13.86"/><path class="cls-1" d="M571.37,217.85c.24.31.57.21.73.69-1,0-.67-.54-.73-.69"/><path class="cls-1" d="M572.53,218.71c0,.37.52.5-.22.65,0-.29.2-.43.22-.65"/></g><g id="HI"><path class="cls-1" d="M29,252.45A4.1,4.1,0,0,0,30,250.37c-1.28.6-1.05,1.15-1.08,2.09"/><path class="cls-1" d="M35.3,251.66c6.56-5.1-9.23-1.74,0,0"/><path class="cls-1" d="M49.13,257.21c.48-.12,1-.29,1.44-.43-.76-1-2.39-4.2-3.82-2.92-1.64,1.47.09,3.4.94,2.34a3.73,3.73,0,0,1,1.44,1"/><path class="cls-1" d="M57.19,259.15c.65-.39,1.17-.22.94-1.15-1.75.1-3.87-1.05-4.68.65a6.7,6.7,0,0,1,3.74.5"/><path class="cls-1" d="M56.83,262c1-1.33.33-1.77-1.3-1.51.44.48.82,1.08,1.3,1.51"/><path class="cls-1" d="M61.37,263.33c3.52-.25,3.37-2.12.43-3.31-.64-.26-2.93-.85-3.1,0-.21,1.07,2.23,2.1,2.66,3.31"/><path class="cls-1" d="M67.49,277.8c.54-.1,6.3-3.08,6.84-4,1.33-2.17-3.06-5.44-5.33-6.41-.79-.34-3.33-2.12-3-.22.45,2.26-.46,1.61-1.22,3.53-.45,1.12,1.63,6.77,2.66,7.06"/></g></g></g></svg>