<?xml version="1.0" encoding="utf-8"?>
<!-- Generator: Adobe Illustrator 24.1.1, SVG Export Plug-In . SVG Version: 6.00 Build 0)  -->
<svg version="1.1" id="Layer_1" xmlns="http://www.w3.org/2000/svg" xmlns:xlink="http://www.w3.org/1999/xlink" x="0px" y="0px"
	 viewBox="0 0 630 117" style="enable-background:new 0 0 630 117;" xml:space="preserve">
<g>
	<g>
		<path d="M87.7,7.4H73.6c-1.5,0-2.2,0.8-2.2,2.2v104.6c0,1.4,0.7,2.2,2.2,2.2h14.2c1.4,0,2.2-0.8,2.2-2.2V9.6
			C89.9,8.2,89.1,7.4,87.7,7.4z"/>
		<path d="M138.4,7.4h-32.7c-1.4,0-2.2,0.8-2.2,2.2v104.6c0,1.4,0.8,2.2,2.2,2.2h14.2c1.5,0,2.2-0.8,2.2-2.2V79.8h16.3
			c12.8,0,19.6-6.9,19.6-19.6V27C158,14.2,151.2,7.4,138.4,7.4z M139.5,56.4c0,3.4-1.8,5.4-5.4,5.4h-12V25.4h12
			c3.7,0,5.4,1.9,5.4,5.4V56.4z"/>
		<path d="M223.8,7.4h-50.1c-1.2,0-2,0.8-2,2.2v104.6c0,1.4,0.8,2.2,2,2.2h50.1c1.6,0,2.2-0.8,2.2-2.2v-13.6c0-1.5-0.5-2.2-2.2-2.2
			h-34V70.8h26c1.4,0,2.2-0.8,2.2-2.3V55c0-1.5-0.8-2.3-2.2-2.3h-26V25.5h34c1.6,0,2.2-1,2.2-2.3V9.6C225.9,8.2,225.4,7.4,223.8,7.4
			z"/>
		<path d="M393.8,7.4h-50.1c-1.2,0-2,0.8-2,2.2v104.6c0,1.4,0.8,2.2,2,2.2h50.1c1.6,0,2.2-0.8,2.2-2.2v-13.6c0-1.5-0.5-2.2-2.2-2.2
			h-34V70.8h26c1.4,0,2.2-0.8,2.2-2.3V55c0-1.5-0.8-2.3-2.2-2.3h-26V25.5h34c1.6,0,2.2-1,2.2-2.3V9.6C396,8.2,395.4,7.4,393.8,7.4z"
			/>
		<path d="M443.2,7.4H428c-12.8,0-19.7,6.8-19.7,19.6v69.7c0,12.8,6.9,19.6,19.7,19.6h15.3c12.7,0,19.6-6.8,19.6-19.6V82
			c0-1.4-0.8-2.2-2.2-2.2H447c-1.5,0-2.2,0.8-2.2,2.2v10.9c0,3.7-1.9,5.4-5.4,5.4h-7.1c-3.5,0-5.4-1.8-5.4-5.4V30.8
			c0-3.5,1.8-5.4,5.4-5.4h7.1c3.5,0,5.4,1.9,5.4,5.4v10.9c0,1.4,0.7,2.2,2.2,2.2h13.6c1.4,0,2.2-0.8,2.2-2.2V27
			C462.8,14.2,455.9,7.4,443.2,7.4z"/>
		<path d="M511.3,7.4H496c-12.8,0-19.6,6.8-19.6,19.6v69.7c0,12.8,6.8,19.6,19.6,19.6h15.3c12.8,0,19.6-6.8,19.6-19.6V27
			C530.9,14.2,524.1,7.4,511.3,7.4z M513.3,93.3c0,3.7-1.9,5.4-5.4,5.4H500c-3.5,0-5.4-1.8-5.4-5.4V30.4c0-3.5,1.9-5.4,5.4-5.4h7.9
			c3.5,0,5.4,1.9,5.4,5.4V93.3z"/>
		<path d="M600.5,60.2V27c0-12.8-6.8-19.6-19.6-19.6h-34.2c-1.4,0-2.2,0.8-2.2,2.2v104.6c0,1.4,0.8,2.2,2.2,2.2h14.2
			c1.4,0,2.2-0.8,2.2-2.2V79.8h9.4l9.1,34.6c0.3,1.2,1,1.9,2.3,1.9H598c1.5,0,2.3-0.8,1.9-2.5l-9.4-35.7
			C597.1,75.3,600.5,69.3,600.5,60.2z M582,56.4c0,3.5-1.9,5.4-5.4,5.4H563V25.4h13.5c3.5,0,5.4,1.9,5.4,5.4V56.4z"/>
		<path d="M308.1,7.4h-32.7c-1.5,0-2.2,0.8-2.2,2.2v25.1h18.2v-3.8c0-0.4,0.3-0.7,0.7-0.7h16.8c0.4,0,0.7,0.3,0.7,0.7v5.8
			c0,0,0,0,0,0v51c0,0,0,0,0,0v5.3c0,0.4-0.4,0.8-0.8,0.8h-16.5c-0.4,0-0.8-0.4-0.8-0.8v-3.7h-18.2v25.1c0,1.5,0.7,2.2,2.2,2.2h32.7
			c12.8,0,19.6-6.8,19.6-19.6V27.1C327.7,14.3,320.9,7.4,308.1,7.4z"/>
		<path d="M35.7,7.4H3c-1.4,0-2.2,0.8-2.2,2.2v15.8h15.4l2.5,0.4v22.9v0.1L20.7,26l0.2,0v35.2l-4.6,0.7H0.9v52.3
			c0,1.4,0.8,2.2,2.2,2.2h14.2c1.5,0,2.2-0.8,2.2-2.2V79.8h16.3c12.8,0,19.6-6.9,19.6-19.6V27C55.3,14.2,48.5,7.4,35.7,7.4z
			 M31.1,59.7l2.7-31.8l0.4,0.1v31.2L31.1,59.7z M24.3,60.7L27.2,27l0.3,0v33.2L24.3,60.7z M30.5,27.4l0.4,0.1v32.2l-3.1,0.5
			L30.5,27.4z M23.9,26.5l0.3,0v34.2l-3.2,0.5L23.9,26.5z M37.3,58.8l-2.9,0.4L37,28.4l0.3,0V58.8z"/>
	</g>
	<g>
		<path d="M629.1,12c0,6.4-5,11.4-11.6,11.4c-6.5,0-11.6-5-11.6-11.4c0-6.3,5.2-11.3,11.6-11.3C624.1,0.7,629.1,5.7,629.1,12z
			 M608.8,12c0,5,3.7,9,8.8,9c5,0,8.6-4,8.6-9c0-5-3.6-9.1-8.7-9.1C612.5,3,608.8,7,608.8,12z M615.8,17.9h-2.6V6.6
			c1-0.2,2.5-0.3,4.3-0.3c2.1,0,3.1,0.3,3.9,0.8c0.6,0.5,1.1,1.4,1.1,2.5c0,1.2-1,2.2-2.3,2.6v0.1c1.1,0.4,1.7,1.2,2.1,2.8
			c0.3,1.7,0.6,2.4,0.8,2.8h-2.8c-0.3-0.4-0.6-1.4-0.9-2.8c-0.2-1.2-0.9-1.8-2.3-1.8h-1.2V17.9z M615.9,11.5h1.2
			c1.4,0,2.6-0.5,2.6-1.7c0-1-0.8-1.7-2.4-1.7c-0.7,0-1.2,0.1-1.4,0.1V11.5z"/>
	</g>
</g>
</svg>
